<?xml version="1.0" encoding="UTF-8" standalone="no"?>
<svg
   xmlns:vectornator="http://vectornator.io"
   xmlns:dc="http://purl.org/dc/elements/1.1/"
   xmlns:cc="http://creativecommons.org/ns#"
   xmlns:rdf="http://www.w3.org/1999/02/22-rdf-syntax-ns#"
   xmlns:svg="http://www.w3.org/2000/svg"
   xmlns="http://www.w3.org/2000/svg"
   xmlns:sodipodi="http://sodipodi.sourceforge.net/DTD/sodipodi-0.dtd"
   xmlns:inkscape="http://www.inkscape.org/namespaces/inkscape"
   height="27"
   style="clip-rule:evenodd;fill-rule:nonzero;stroke-linecap:round;stroke-linejoin:round"
   xml:space="preserve"
   width="161"
   version="1.1"
   viewBox="0 0 161 27"
   id="svg893"
   sodipodi:docname="bavilogoschrift_farbe.svg"
   inkscape:version="1.0.1 (c497b03c, 2020-09-10)"
   inkscape:export-filename="/Users/saschakurzer/Desktop/Neuer Ordner/Sascha_Projekt_Wissensaufbau_Webdesign/BaviLogo-Final/BaviLogoSchrift_PNG/512px_bavilogoschrift_farbe.png"
   inkscape:export-xdpi="1820.4445"
   inkscape:export-ydpi="1820.4445"><sodipodi:namedview
   pagecolor="#ffffff"
   bordercolor="#666666"
   borderopacity="1"
   objecttolerance="10"
   gridtolerance="10"
   guidetolerance="10"
   inkscape:pageopacity="0"
   inkscape:pageshadow="2"
   inkscape:window-width="1622"
   inkscape:window-height="766"
   id="namedview895"
   showgrid="false"
   inkscape:zoom="2.4083333"
   inkscape:cx="59.541781"
   inkscape:cy="0.74885788"
   inkscape:window-x="0"
   inkscape:window-y="25"
   inkscape:window-maximized="0"
   inkscape:current-layer="svg893" />
<metadata
   id="metadata833">
<vectornator:setting
   key="DimensionsVisible"
   value="0" />
<vectornator:setting
   key="PencilOnly"
   value="0" />
<vectornator:setting
   key="SnapToPoints"
   value="0" />
<vectornator:setting
   key="OutlineMode"
   value="0" />
<vectornator:setting
   key="CMYKEnabledKey"
   value="0" />
<vectornator:setting
   key="RulersVisible"
   value="1" />
<vectornator:setting
   key="SnapToEdges"
   value="0" />
<vectornator:setting
   key="GuidesVisible"
   value="1" />
<vectornator:setting
   key="DisplayWhiteBackground"
   value="0" />
<vectornator:setting
   key="doHistoryDisabled"
   value="0" />
<vectornator:setting
   key="SnapToGuides"
   value="1" />
<vectornator:setting
   key="TimeLapseWatermarkDisabled"
   value="0" />
<vectornator:setting
   key="Units"
   value="Pixels" />
<vectornator:setting
   key="DynamicGuides"
   value="1" />
<vectornator:setting
   key="IsolateActiveLayer"
   value="0" />
<vectornator:setting
   key="SnapToGrid"
   value="0" />
<rdf:RDF><cc:Work
     rdf:about=""><dc:format>image/svg+xml</dc:format><dc:type
       rdf:resource="http://purl.org/dc/dcmitype/StillImage" /><dc:title></dc:title></cc:Work></rdf:RDF></metadata>
<defs
   id="defs842">
<linearGradient
   y1="6.88622"
   id="LinearGradient"
   x1="10.6409"
   y2="24.0811"
   x2="27.574699"
   gradientUnits="userSpaceOnUse"
   gradientTransform="translate(-1.54846,-1.89502)">
<stop
   stop-color="#c4163a"
   offset="0"
   id="stop835" />
<stop
   stop-color="#c7c5c5"
   offset="0.561063"
   id="stop837" />
<stop
   stop-color="#606265"
   offset="1"
   id="stop839" />
</linearGradient>
</defs>
<g
   id="Ebene 1"
   vectornator:layerName="Ebene 1"
   transform="translate(0.699735)">
<path
   d="m 4.69153,14.925 h -2.86 v -2.82 h 2.86 z m 3.57,-2.82 h -2.81 v 2.86 h 2.81 z m 0,-3.57001 h -2.81 V 11.395 h 2.81 z m 0,-3.58 h -2.81 v 2.82 h 2.81 z m 3.57997,3.58 H 8.98153 V 11.395 h 2.85997 z m 0,-3.58 H 8.98153 v 2.82 h 2.85997 z m 0,7.15001 H 8.98153 v 2.86 h 2.85997 z m 3.61,-3.61001 h -2.9 V 11.355 h 2.9 z m 0,-3.58 h -2.9 v 2.86 h 2.9 z m 0,-3.57 h -2.9 v 2.86 h 2.9 z m 0,10.76001 h -2.9 v 2.86 h 2.9 z m 3.57,-3.57001 h -2.9 V 11.395 h 2.86 z m 0,-3.58 h -2.9 v 2.82 h 2.86 z m 0,7.15001 h -2.9 v 2.86 h 2.86 z m 3.58,-3.57001 h -2.9 V 11.395 h 2.86 z m 0,-3.58 h -2.9 v 2.82 h 2.86 z m 0,7.15001 h -2.9 v 2.86 h 2.86 z m 3.57,-3.57001 h -2.9 V 11.395 h 2.86 z m 3.58,0 h -2.9 V 11.395 h 2.86 z m -3.62,3.57001 h -2.86 v 2.86 h 2.86 z m -7.15,3.58 h -2.86 v 2.82 h 2.86 z m 0,3.57 h -2.86 v 2.85 h 2.86 z m 3.58,-3.57 h -2.86 v 2.82 h 2.86 z m 0,3.57 h -2.86 v 2.85 h 2.86 z m -3.58,3.51 h -2.86 v 2.86 h 2.86 z m 3.58,0 h -2.86 v 2.86 h 2.86 z m 3.57,-7.08 h -2.86 v 2.82 h 2.86 z m 0,3.57 h -2.86 v 2.85 h 2.86 z m -14.29,-3.61 H 8.98153 v 2.86 h 2.85997 z"
   fill-rule="evenodd"
   fill="url(#LinearGradient)"
   opacity="1"
   id="path844"
   style="fill:url(#LinearGradient)" />
<g
   opacity="1"
   id="g890">
<path
   d="m 32.4889,13.4745 h 2.5687 c 1.1905,0 2.0508,0.1727 2.5824,0.5195 0.5301,0.3484 0.7952,0.8967 0.7952,1.6449 0,0.5058 -0.1303,0.9254 -0.3908,1.2601 -0.2605,0.3363 -0.6346,0.5468 -1.1238,0.6331 v 0.0591 c 0.6073,0.1151 1.0541,0.3408 1.3404,0.6785 0.2863,0.3363 0.4286,0.7937 0.4286,1.3692 0,0.777 -0.2711,1.3859 -0.8133,1.8251 -0.5422,0.4393 -1.2965,0.6604 -2.2628,0.6604 h -3.1246 z m 1.4146,3.5729 h 1.3601 c 0.5922,0 1.0239,-0.0939 1.2965,-0.2817 0.2726,-0.1863 0.4074,-0.5058 0.4074,-0.9542 0,-0.4074 -0.1469,-0.7012 -0.4407,-0.8815 -0.2939,-0.1817 -0.7604,-0.2726 -1.398,-0.2726 h -1.2253 z m 0,1.1481 v 2.7384 h 1.5025 c 0.5922,0 1.039,-0.1121 1.3404,-0.3393 0.3014,-0.2272 0.4529,-0.5846 0.4529,-1.0738 0,-0.4498 -0.1545,-0.7831 -0.462,-0.9996 -0.3075,-0.2181 -0.7755,-0.3257 -1.4025,-0.3257 z"
   fill-rule="evenodd"
   fill="#5f6164"
   opacity="1"
   id="path846" />
<path
   d="m 44.4343,22.1244 -0.2786,-0.9118 h -0.047 c -0.315,0.3983 -0.6331,0.6694 -0.9527,0.8133 -0.3196,0.1439 -0.7285,0.2166 -1.2298,0.2166 -0.6437,0 -1.1451,-0.1742 -1.5055,-0.521 -0.362,-0.3468 -0.5423,-0.8376 -0.5423,-1.4737 0,-0.674 0.2515,-1.1829 0.7513,-1.5267 0.5013,-0.3423 1.2647,-0.5301 2.29,-0.5619 l 1.1299,-0.0349 v -0.3498 c 0,-0.4181 -0.0969,-0.7301 -0.2923,-0.9376 -0.1954,-0.206 -0.4983,-0.3105 -0.9087,-0.3105 -0.3348,0 -0.6559,0.05 -0.9648,0.1485 -0.3075,0.0984 -0.6029,0.215 -0.8861,0.3483 l -0.4498,-0.9936 c 0.3544,-0.1847 0.7436,-0.3256 1.1647,-0.4225 0.4226,-0.097 0.8209,-0.1454 1.195,-0.1454 0.8331,0 1.4601,0.1817 1.8842,0.5437 0.4241,0.3635 0.6361,0.933 0.6361,1.71 v 4.409 z m -2.0704,-0.9466 c 0.5043,0 0.9103,-0.1424 1.2162,-0.4241 0.3044,-0.2817 0.4574,-0.6771 0.4574,-1.186 v -0.5679 l -0.8391,0.0348 c -0.6558,0.0242 -1.1314,0.1333 -1.4298,0.3287 -0.2968,0.1954 -0.4468,0.4937 -0.4468,0.8966 0,0.2923 0.0879,0.518 0.2606,0.677 0.1741,0.1606 0.4346,0.2409 0.7815,0.2409 z"
   fill-rule="evenodd"
   fill="#5f6164"
   opacity="1"
   id="path848" />
<path
   d="m 51.765,20.2599 c 0,0.6392 -0.2333,1.1299 -0.6982,1.4707 -0.465,0.3408 -1.1314,0.5119 -1.9993,0.5119 -0.8724,0 -1.5722,-0.1333 -2.1008,-0.3968 v -1.2011 c 0.7695,0.3544 1.4844,0.5332 2.1477,0.5332 0.8558,0 1.2844,-0.259 1.2844,-0.7755 0,-0.1666 -0.0484,-0.3044 -0.1423,-0.415 C 50.161,19.8767 50.005,19.7631 49.7884,19.645 49.5719,19.5268 49.2705,19.392 48.8842,19.2421 48.13,18.9513 47.6211,18.659 47.3545,18.3667 c -0.2666,-0.2924 -0.3999,-0.671 -0.3999,-1.136 0,-0.5604 0.2257,-0.9951 0.6771,-1.3041 0.4528,-0.3104 1.0662,-0.4649 1.8432,-0.4649 0.7694,0 1.4964,0.156 2.1841,0.468 l -0.4499,1.0466 c -0.7058,-0.2924 -1.2995,-0.4378 -1.7811,-0.4378 -0.7331,0 -1.1011,0.2091 -1.1011,0.6271 0,0.206 0.0969,0.3786 0.2877,0.521 0.1909,0.1424 0.6089,0.3378 1.2511,0.5862 0.5407,0.209 0.933,0.3998 1.1768,0.5725 0.2454,0.1742 0.4271,0.3741 0.5453,0.6013 0.1181,0.2272 0.1772,0.4983 0.1772,0.8133 z"
   fill-rule="evenodd"
   fill="#5f6164"
   opacity="1"
   id="path850" />
<path
   d="m 54.6579,22.1244 h -1.3904 v -6.5446 h 1.3904 z m -1.4737,-8.2773 c 0,-0.2484 0.0681,-0.4407 0.2044,-0.574 0.1364,-0.1348 0.3302,-0.2015 0.5832,-0.2015 0.2438,0 0.4347,0.0667 0.571,0.2015 0.1363,0.1333 0.2044,0.3256 0.2044,0.574 0,0.2363 -0.0681,0.4226 -0.2044,0.5589 -0.1363,0.1363 -0.3272,0.2045 -0.571,0.2045 -0.253,0 -0.4468,-0.0682 -0.5832,-0.2045 -0.1363,-0.1363 -0.2044,-0.3226 -0.2044,-0.5589 z"
   fill-rule="evenodd"
   fill="#5f6164"
   opacity="1"
   id="path852" />
<path
   d="m 61.0419,20.2599 c 0,0.6392 -0.2332,1.1299 -0.6982,1.4707 -0.465,0.3408 -1.1314,0.5119 -1.9993,0.5119 -0.8724,0 -1.5721,-0.1333 -2.1007,-0.3968 v -1.2011 c 0.7694,0.3544 1.4843,0.5332 2.1477,0.5332 0.8557,0 1.2843,-0.259 1.2843,-0.7755 0,-0.1666 -0.0484,-0.3044 -0.1423,-0.415 -0.0955,-0.1106 -0.2515,-0.2242 -0.468,-0.3423 -0.2166,-0.1182 -0.518,-0.253 -0.9043,-0.4029 -0.7542,-0.2908 -1.2631,-0.5831 -1.5297,-0.8754 -0.2666,-0.2924 -0.3999,-0.671 -0.3999,-1.136 0,-0.5604 0.2257,-0.9951 0.6771,-1.3041 0.4528,-0.3104 1.0662,-0.4649 1.8432,-0.4649 0.7694,0 1.4965,0.156 2.1841,0.468 l -0.4499,1.0466 c -0.7058,-0.2924 -1.2995,-0.4378 -1.7811,-0.4378 -0.7331,0 -1.1011,0.2091 -1.1011,0.6271 0,0.206 0.0969,0.3786 0.2877,0.521 0.1909,0.1424 0.6089,0.3378 1.2511,0.5862 0.5407,0.209 0.933,0.3998 1.1768,0.5725 0.2454,0.1742 0.4272,0.3741 0.5453,0.6013 0.1181,0.2272 0.1772,0.4983 0.1772,0.8133 z"
   fill-rule="evenodd"
   fill="#5f6164"
   opacity="1"
   id="path854" />
<path
   d="m 64.0348,22.0062 -2.484,-6.5445 h 1.4677 l 1.3313,3.8046 c 0.2287,0.6392 0.3665,1.1557 0.4135,1.5495 h 0.0469 c 0.0364,-0.2833 0.1742,-0.7997 0.415,-1.5495 l 1.3314,-3.8046 h 1.4782 l -2.496,6.5445 z"
   fill-rule="evenodd"
   fill="#5f6164"
   opacity="1"
   id="path856" />
<path
   d="m 70.4188,22.1244 h -1.3904 v -6.5446 h 1.3904 z m -1.4722,-8.2773 c 0,-0.2484 0.0682,-0.4407 0.203,-0.574 0.1363,-0.1348 0.3316,-0.2015 0.5831,-0.2015 0.2453,0 0.4347,0.0667 0.571,0.2015 0.1363,0.1333 0.2044,0.3256 0.2044,0.574 0,0.2363 -0.0681,0.4226 -0.2044,0.5589 -0.1363,0.1363 -0.3257,0.2045 -0.571,0.2045 -0.2515,0 -0.4468,-0.0682 -0.5831,-0.2045 -0.1348,-0.1363 -0.203,-0.3226 -0.203,-0.5589 z"
   fill-rule="evenodd"
   fill="#5f6164"
   opacity="1"
   id="path858" />
<path
   d="m 76.8028,20.2599 c 0,0.6392 -0.2317,1.1299 -0.6982,1.4707 -0.465,0.3408 -1.1314,0.5119 -1.9993,0.5119 -0.8724,0 -1.5721,-0.1333 -2.1007,-0.3968 v -1.2011 c 0.7694,0.3544 1.4858,0.5332 2.1477,0.5332 0.8557,0 1.2844,-0.259 1.2844,-0.7755 0,-0.1666 -0.047,-0.3044 -0.1424,-0.415 -0.0939,-0.1106 -0.2499,-0.2242 -0.468,-0.3423 -0.2166,-0.1182 -0.518,-0.253 -0.9042,-0.4029 -0.7543,-0.2908 -1.2632,-0.5831 -1.5298,-0.8754 -0.2666,-0.2924 -0.3998,-0.671 -0.3998,-1.136 0,-0.5604 0.2256,-0.9951 0.6785,-1.3041 0.4513,-0.3104 1.0648,-0.4649 1.8417,-0.4649 0.7695,0 1.498,0.156 2.1841,0.468 l -0.4498,1.0466 c -0.7058,-0.2924 -1.2996,-0.4378 -1.7812,-0.4378 -0.7331,0 -1.0996,0.2091 -1.0996,0.6271 0,0.206 0.0954,0.3786 0.2863,0.521 0.1908,0.1424 0.6088,0.3378 1.251,0.5862 0.5407,0.209 0.933,0.3998 1.1784,0.5725 0.2438,0.1742 0.4256,0.3741 0.5437,0.6013 0.1181,0.2272 0.1772,0.4983 0.1772,0.8133 z"
   fill-rule="evenodd"
   fill="#5f6164"
   opacity="1"
   id="path860" />
<path
   d="m 82.9203,22.1244 -0.1954,-0.8588 h -0.0712 c -0.1923,0.3044 -0.468,0.5422 -0.8239,0.7164 -0.3575,0.1727 -0.7649,0.2605 -1.2223,0.2605 -0.7937,0 -1.3844,-0.1984 -1.7751,-0.5922 -0.3908,-0.3938 -0.5862,-0.992 -0.5862,-1.7933 v -4.2772 h 1.4025 v 4.0349 c 0,0.5013 0.103,0.8769 0.3075,1.1269 0.206,0.2514 0.5271,0.3756 0.9648,0.3756 0.5831,0 1.0133,-0.1742 1.2874,-0.5226 0.2742,-0.3498 0.4105,-0.9345 0.4105,-1.7539 v -3.2609 h 1.3964 v 6.5446 z"
   fill-rule="evenodd"
   fill="#5f6164"
   opacity="1"
   id="path862" />
<path
   d="m 90.0919,22.1244 -0.2787,-0.9118 h -0.0469 c -0.3166,0.3983 -0.6331,0.6694 -0.9527,0.8133 -0.3196,0.1439 -0.7301,0.2166 -1.2314,0.2166 -0.6422,0 -1.145,-0.1742 -1.5055,-0.521 -0.3605,-0.3468 -0.5407,-0.8376 -0.5407,-1.4737 0,-0.674 0.2499,-1.1829 0.7512,-1.5267 0.5014,-0.3423 1.2647,-0.5301 2.2901,-0.5619 l 1.1299,-0.0349 v -0.3498 c 0,-0.4181 -0.0985,-0.7301 -0.2938,-0.9376 -0.1954,-0.206 -0.4968,-0.3105 -0.9073,-0.3105 -0.3362,0 -0.6573,0.05 -0.9648,0.1485 -0.3074,0.0984 -0.6028,0.215 -0.8875,0.3483 l -0.4499,-0.9936 c 0.356,-0.1847 0.7437,-0.3256 1.1663,-0.4225 0.421,-0.097 0.8194,-0.1454 1.195,-0.1454 0.8315,0 1.4601,0.1817 1.8841,0.5437 0.4241,0.3635 0.6362,0.933 0.6362,1.71 v 4.409 z m -2.072,-0.9466 c 0.5059,0 0.9103,-0.1424 1.2163,-0.4241 0.3059,-0.2817 0.4589,-0.6771 0.4589,-1.186 v -0.5679 l -0.8406,0.0348 c -0.6543,0.0242 -1.1314,0.1333 -1.4283,0.3287 -0.2984,0.1954 -0.4468,0.4937 -0.4468,0.8966 0,0.2923 0.0863,0.518 0.2605,0.677 0.1727,0.1606 0.4332,0.2409 0.78,0.2409 z"
   fill-rule="evenodd"
   fill="#5f6164"
   opacity="1"
   id="path864" />
<path
   d="m 94.4161,22.1244 h -1.3904 v -9.2073 h 1.3904 z"
   fill-rule="evenodd"
   fill="#5f6164"
   opacity="1"
   id="path866" />
<path
   d="m 97.7951,22.1244 h -1.3904 v -6.5446 h 1.3904 z m -1.4737,-8.2773 c 0,-0.2484 0.0682,-0.4407 0.2045,-0.574 0.1348,-0.1348 0.3302,-0.2015 0.5816,-0.2015 0.2454,0 0.4362,0.0667 0.571,0.2015 0.1363,0.1333 0.2045,0.3256 0.2045,0.574 0,0.2363 -0.0682,0.4226 -0.2045,0.5589 -0.1348,0.1363 -0.3256,0.2045 -0.571,0.2045 -0.2514,0 -0.4468,-0.0682 -0.5816,-0.2045 -0.1363,-0.1363 -0.2045,-0.3226 -0.2045,-0.5589 z"
   fill-rule="evenodd"
   fill="#5f6164"
   opacity="1"
   id="path868" />
<path
   d="m 104.178,20.2599 c 0,0.6392 -0.232,1.1299 -0.699,1.4707 -0.465,0.3408 -1.131,0.5119 -1.999,0.5119 -0.871,0 -1.572,-0.1333 -2.1006,-0.3968 v -1.2011 c 0.7696,0.3544 1.4856,0.5332 2.1476,0.5332 0.856,0 1.284,-0.259 1.284,-0.7755 0,-0.1666 -0.046,-0.3044 -0.142,-0.415 -0.094,-0.1106 -0.25,-0.2242 -0.466,-0.3423 -0.218,-0.1182 -0.52,-0.253 -0.906,-0.4029 -0.753,-0.2908 -1.263,-0.5831 -1.5299,-0.8754 -0.2665,-0.2924 -0.3983,-0.671 -0.3983,-1.136 0,-0.5604 0.2257,-0.9951 0.6772,-1.3041 0.451,-0.3104 1.066,-0.4649 1.843,-0.4649 0.768,0 1.497,0.156 2.183,0.468 l -0.45,1.0466 c -0.706,-0.2924 -1.3,-0.4378 -1.781,-0.4378 -0.733,0 -1.1,0.2091 -1.1,0.6271 0,0.206 0.095,0.3786 0.286,0.521 0.193,0.1424 0.609,0.3378 1.251,0.5862 0.541,0.209 0.933,0.3998 1.179,0.5725 0.244,0.1742 0.425,0.3741 0.543,0.6013 0.119,0.2272 0.178,0.4983 0.178,0.8133 z"
   fill-rule="evenodd"
   fill="#5f6164"
   opacity="1"
   id="path870" />
<path
   d="m 107.072,22.1244 h -1.39 v -6.5446 h 1.39 z m -1.474,-8.2773 c 0,-0.2484 0.069,-0.4407 0.205,-0.574 0.135,-0.1348 0.33,-0.2015 0.581,-0.2015 0.246,0 0.437,0.0667 0.571,0.2015 0.137,0.1333 0.205,0.3256 0.205,0.574 0,0.2363 -0.068,0.4226 -0.205,0.5589 -0.134,0.1363 -0.325,0.2045 -0.571,0.2045 -0.251,0 -0.446,-0.0682 -0.581,-0.2045 -0.136,-0.1363 -0.205,-0.3226 -0.205,-0.5589 z"
   fill-rule="evenodd"
   fill="#5f6164"
   opacity="1"
   id="path872" />
<path
   d="m 111.917,22.2425 c -1.018,0 -1.814,-0.2968 -2.387,-0.8906 -0.574,-0.5937 -0.862,-1.4116 -0.862,-2.4521 0,-1.0693 0.267,-1.9099 0.8,-2.5203 0.532,-0.6119 1.263,-0.9178 2.195,-0.9178 0.863,0 1.546,0.262 2.046,0.7876 0.501,0.524 0.751,1.2465 0.751,2.1643 v 0.7513 h -4.359 c 0.02,0.6361 0.191,1.1238 0.514,1.4646 0.324,0.3408 0.78,0.5119 1.367,0.5119 0.387,0 0.747,-0.0363 1.08,-0.109 0.334,-0.0727 0.691,-0.1939 1.074,-0.3635 v 1.1298 c -0.339,0.1606 -0.683,0.2757 -1.03,0.3423 -0.347,0.0682 -0.743,0.1015 -1.189,0.1015 z m -0.254,-5.7282 c -0.442,0 -0.797,0.1409 -1.062,0.4211 -0.266,0.2802 -0.426,0.6876 -0.477,1.2238 h 2.97 c -0.007,-0.5392 -0.138,-0.9497 -0.391,-1.2269 -0.251,-0.2786 -0.599,-0.418 -1.04,-0.418 z"
   fill-rule="evenodd"
   fill="#5f6164"
   opacity="1"
   id="path874" />
<path
   d="m 119.36,15.4617 c 0.28,0 0.51,0.0197 0.692,0.059 l -0.136,1.2965 c -0.197,-0.0484 -0.403,-0.0712 -0.615,-0.0712 -0.556,0 -1.007,0.1818 -1.353,0.5438 -0.345,0.3635 -0.518,0.8345 -0.518,1.4146 v 3.42 h -1.39 v -6.5446 h 1.089 l 0.183,1.1541 h 0.071 c 0.217,-0.3907 0.5,-0.6997 0.85,-0.9284 0.348,-0.2287 0.724,-0.3438 1.127,-0.3438 z"
   fill-rule="evenodd"
   fill="#5f6164"
   opacity="1"
   id="path876" />
<path
   d="m 125.88,22.1244 -0.195,-0.8588 h -0.071 c -0.194,0.3044 -0.47,0.5422 -0.826,0.7164 -0.357,0.1727 -0.765,0.2605 -1.222,0.2605 -0.792,0 -1.384,-0.1984 -1.775,-0.5922 -0.391,-0.3938 -0.585,-0.992 -0.585,-1.7933 v -4.2772 h 1.401 v 4.0349 c 0,0.5013 0.103,0.8769 0.308,1.1269 0.206,0.2514 0.527,0.3756 0.965,0.3756 0.584,0 1.013,-0.1742 1.287,-0.5226 0.274,-0.3498 0.41,-0.9345 0.41,-1.7539 v -3.2609 h 1.397 v 6.5446 z"
   fill-rule="evenodd"
   fill="#5f6164"
   opacity="1"
   id="path878" />
<path
   d="m 134.713,22.1244 h -1.396 v -4.0243 c 0,-0.5044 -0.101,-0.8815 -0.306,-1.1299 -0.203,-0.2484 -0.525,-0.3726 -0.966,-0.3726 -0.588,0 -1.018,0.1742 -1.291,0.521 -0.271,0.3469 -0.407,0.9285 -0.407,1.7449 v 3.2609 h -1.391 v -6.5446 h 1.089 l 0.194,0.8588 h 0.072 c 0.196,-0.312 0.477,-0.5528 0.84,-0.7225 0.364,-0.1696 0.765,-0.2544 1.207,-0.2544 1.569,0 2.355,0.7982 2.355,2.3961 z"
   fill-rule="evenodd"
   fill="#5f6164"
   opacity="1"
   id="path880" />
<path
   d="m 142.174,15.5798 v 0.7634 l -1.118,0.2075 c 0.103,0.1378 0.188,0.3074 0.254,0.5089 0.067,0.2014 0.1,0.4135 0.1,0.6391 0,0.674 -0.231,1.2041 -0.698,1.5904 -0.465,0.3877 -1.106,0.58 -1.922,0.58 -0.209,0 -0.398,-0.0151 -0.568,-0.0469 -0.3,0.1848 -0.45,0.4029 -0.45,0.6513 0,0.1499 0.07,0.262 0.211,0.3362 0.139,0.0757 0.397,0.1136 0.772,0.1136 h 1.141 c 0.722,0 1.27,0.153 1.645,0.4604 0.375,0.3075 0.561,0.7513 0.561,1.3314 0,0.7421 -0.304,1.3131 -0.916,1.716 -0.612,0.4029 -1.495,0.6028 -2.65,0.6028 -0.893,0 -1.573,-0.1575 -2.042,-0.4725 -0.47,-0.3151 -0.705,-0.7649 -0.705,-1.3495 0,-0.4014 0.127,-0.7407 0.382,-1.0148 0.255,-0.2742 0.611,-0.4635 1.07,-0.571 -0.187,-0.0788 -0.34,-0.206 -0.459,-0.3817 -0.122,-0.1742 -0.181,-0.359 -0.181,-0.5528 0,-0.2439 0.069,-0.4514 0.206,-0.621 0.138,-0.1696 0.344,-0.3378 0.617,-0.5029 -0.339,-0.1454 -0.615,-0.3832 -0.826,-0.7133 -0.212,-0.3287 -0.317,-0.7149 -0.317,-1.1557 0,-0.7103 0.223,-1.2601 0.672,-1.6509 0.448,-0.3908 1.086,-0.5861 1.914,-0.5861 0.185,0 0.379,0.0136 0.582,0.0393 0.204,0.0243 0.357,0.0515 0.459,0.0788 z m -5.141,7.5609 c 0,0.2999 0.135,0.5316 0.404,0.6921 0.272,0.1621 0.65,0.2439 1.139,0.2439 0.758,0 1.323,-0.1091 1.694,-0.3256 0.369,-0.2166 0.556,-0.5059 0.556,-0.8649 0,-0.2832 -0.102,-0.4846 -0.305,-0.6058 -0.204,-0.1197 -0.581,-0.1803 -1.134,-0.1803 h -1.053 c -0.398,0 -0.715,0.094 -0.95,0.2802 -0.234,0.1879 -0.351,0.4408 -0.351,0.7604 z m 0.597,-5.442 c 0,0.4105 0.106,0.7255 0.316,0.9466 0.212,0.2212 0.514,0.3302 0.909,0.3302 0.804,0 1.207,-0.4286 1.207,-1.2889 0,-0.4256 -0.1,-0.7543 -0.298,-0.986 -0.2,-0.2302 -0.503,-0.3453 -0.909,-0.3453 -0.403,0 -0.707,0.1136 -0.915,0.3438 -0.206,0.2287 -0.31,0.5619 -0.31,0.9996 z"
   fill-rule="evenodd"
   fill="#5f6164"
   opacity="1"
   id="path882" />
<path
   d="m 143.179,21.3837 c 0,-0.2877 0.076,-0.5089 0.226,-0.6618 0.15,-0.1545 0.367,-0.2318 0.651,-0.2318 0.288,0 0.506,0.0803 0.656,0.2409 0.15,0.159 0.226,0.3771 0.226,0.6527 0,0.2802 -0.077,0.5029 -0.229,0.6665 -0.151,0.1635 -0.369,0.2453 -0.653,0.2453 -0.284,0 -0.501,-0.0818 -0.651,-0.2423 -0.15,-0.1621 -0.226,-0.3847 -0.226,-0.6695 z"
   fill-rule="evenodd"
   fill="#c4153a"
   opacity="1"
   id="path884" />
<path
   d="m 154.072,22.1244 h -1.734 l -4.253,-6.893 h -0.048 l 0.03,0.3848 c 0.054,0.733 0.083,1.404 0.083,2.0113 v 4.4969 h -1.284 v -8.6499 h 1.716 l 4.242,6.8566 h 0.035 c -0.007,-0.0909 -0.024,-0.4211 -0.047,-0.9905 -0.024,-0.5711 -0.036,-1.0148 -0.036,-1.3344 v -4.5317 h 1.296 z"
   fill-rule="evenodd"
   fill="#c4153a"
   opacity="1"
   id="path886" />
<path
   d="m 156.356,22.1244 v -8.6499 h 1.413 v 8.6499 z"
   fill-rule="evenodd"
   fill="#c4153a"
   opacity="1"
   id="path888" />
</g>
</g>
</svg>