<svg id="Ebene_1" data-name="Ebene 1" xmlns="http://www.w3.org/2000/svg" xmlns:xlink="http://www.w3.org/1999/xlink" viewBox="0 0 27.88 24.31"><defs><style>.cls-1{fill:url(#Unbenannter_Verlauf_2);}.cls-2{fill:url(#Unbenannter_Verlauf_3);}</style><linearGradient id="Unbenannter_Verlauf_2" x1="-28.38" y1="585.65" x2="-28.37" y2="585.63" gradientTransform="matrix(1950, 0, 0, -1700, 55356.38, 995600.98)" gradientUnits="userSpaceOnUse"><stop offset="0" stop-color="#c4163a"/><stop offset="0.58" stop-color="#c7c5c5"/><stop offset="1" stop-color="#606265"/></linearGradient><linearGradient id="Unbenannter_Verlauf_3" x1="8.74" y1="5.03" x2="27.68" y2="23.97" gradientUnits="userSpaceOnUse"><stop offset="0" stop-color="#c4163a"/><stop offset="0.71" stop-color="#c7c5c5"/><stop offset="1" stop-color="#606265"/></linearGradient></defs><path id="Vereinigungsmenge_1" data-name="Vereinigungsmenge 1" class="cls-1" d="M21.25,27.55V24.69h2.86v2.86Zm-3.58,0V24.69h2.86v2.86ZM24.82,24V21.11h2.86V24Zm-3.57,0V21.11h2.86V24Zm-3.58,0V21.11h2.86V24Zm7.15-3.57V17.54h2.86V20.4Zm-3.57,0V17.54h2.86V20.4Zm-3.58,0V17.54h2.86V20.4Zm-7.14,0V17.54h2.86V20.4Zm14.29-3.58V14h2.86v2.86Zm-3.57,0V14h2.86v2.86Zm-3.58,0V14h2.86v2.86Zm-3.57,0V14H17v2.86Zm-3.57,0V14h2.86v2.86ZM7,16.82V14H9.81v2.86Zm-3.57,0V14H6.24v2.86Zm25-3.57V10.39h2.86v2.86Zm-3.58,0V10.39h2.86v2.86Zm-3.57,0V10.39h2.86v2.86Zm-3.58,0V10.39h2.86v2.86Zm-3.57,0V10.39H17v2.86Zm-3.57,0V10.39h2.86v2.86ZM7,13.25V10.39H9.81v2.86Zm14.3-3.58V6.81h2.86V9.67Zm-3.58,0V6.81h2.86V9.67Zm-3.57,0V6.81H17V9.67Zm-3.57,0V6.81h2.86V9.67ZM7,9.67V6.81H9.81V9.67ZM14.1,6.1V3.24H17V6.1Z" transform="translate(-3.38 -3.24)"/><path class="cls-2" d="M6.24,16.82H3.38V14H6.24ZM9.81,14H7v2.86H9.81Zm0-3.57H7v2.86H9.81Zm0-3.58H7V9.67H9.81Zm3.58,3.58H10.53v2.86h2.86Zm0-3.58H10.53V9.67h2.86Zm0,7.15H10.53v2.86h2.86ZM17,10.39H14.1v2.86H17Zm0-3.58H14.1V9.67H17Zm0-3.57H14.1V6.1H17ZM17,14H14.1v2.86H17Zm3.57-3.57H17.67v2.86h2.86Zm0-3.58H17.67V9.67h2.86Zm0,7.15H17.67v2.86h2.86Zm3.58-3.57H21.25v2.86h2.86Zm0-3.58H21.25V9.67h2.86Zm0,7.15H21.25v2.86h2.86Zm3.57-3.57H24.82v2.86h2.86Zm3.58,0H28.4v2.86h2.86ZM27.68,14H24.82v2.86h2.86Zm-7.15,3.58H17.67V20.4h2.86Zm0,3.57H17.67V24h2.86Zm3.58-3.57H21.25V20.4h2.86Zm0,3.57H21.25V24h2.86Zm-3.58,3.51H17.67v2.86h2.86Zm3.58,0H21.25v2.86h2.86Zm3.57-7.08H24.82V20.4h2.86Zm0,3.57H24.82V24h2.86ZM13.39,17.54H10.53V20.4h2.86Z" transform="translate(-3.38 -3.24)"/></svg>