<?xml version="1.0" encoding="UTF-8" standalone="no"?>
<svg
   xmlns:dc="http://purl.org/dc/elements/1.1/"
   xmlns:cc="http://creativecommons.org/ns#"
   xmlns:rdf="http://www.w3.org/1999/02/22-rdf-syntax-ns#"
   xmlns:svg="http://www.w3.org/2000/svg"
   xmlns="http://www.w3.org/2000/svg"
   version="1.1"
   id="svg10"
   xml:space="preserve"
   width="173.58667"
   height="52.68"
   viewBox="0 0 173.58667 52.68"><metadata
     id="metadata16"><rdf:RDF><cc:Work
         rdf:about=""><dc:format>image/svg+xml</dc:format><dc:type
           rdf:resource="http://purl.org/dc/dcmitype/StillImage" /><dc:title></dc:title></cc:Work></rdf:RDF></metadata><defs
     id="defs14" /><g
     id="g18"
     transform="matrix(1.3333333,0,0,-1.3333333,0,52.68)"><g
       id="g20"
       transform="scale(0.1)"><path
         d="M 463.805,1.82422 H 628.082 V 44.2305 H 514.371 V 166.785 H 463.805 V 1.82422"
         style="fill:#515459;fill-opacity:1;fill-rule:evenodd;stroke:none"
         id="path22" /><path
         d="M 646.949,59.6797 C 646.949,11.3984 674.039,0 719.645,0 h 60.808 c 56.973,0 81.582,2.29688 81.582,49.6953 V 96.6328 H 748.559 V 62.4492 h 62.89 v -4.8125 c 0,-15.9258 -13.242,-17.9804 -26.465,-17.9804 h -53.972 c -25.508,0 -32.11,6.1328 -32.11,34.414 v 20.4805 c 0,28.2622 6.602,34.4262 32.11,34.4262 h 54.89 c 16.211,0 25.547,-2.051 25.547,-18.457 h 49.649 v 5.234 c 0,32.117 -7.95,52.867 -65.41,52.867 h -76.043 c -45.606,0 -72.696,-11.414 -72.696,-59.707 V 59.6797"
         style="fill:#515459;fill-opacity:1;fill-rule:evenodd;stroke:none"
         id="path24" /><path
         d="M 892.504,1.82422 H 1056.8 V 44.2305 H 943.109 V 166.785 H 892.504 V 1.82422"
         style="fill:#515459;fill-opacity:1;fill-rule:evenodd;stroke:none"
         id="path26" /><path
         d="M 191.43,395.129 0,284.504 147.063,29.4258 274.84,103.176 l -36.231,63.457 -64.093,-36.672 -37.106,63.43 63.883,37.105 -37.105,63.652 63.894,37.336 -36.652,63.645"
         style="fill:#515459;fill-opacity:1;fill-rule:evenodd;stroke:none"
         id="path28" /><path
         d="m 228.082,331.484 63.887,36.653 110.625,-191.645 -63.867,-36.465 -36.68,63.481 -63.457,-36.875 -37.297,63.863 63.879,36.66 -37.09,64.328"
         style="fill:#515459;fill-opacity:1;fill-rule:evenodd;stroke:none"
         id="path30" /><path
         d="M 338.727,140.027 274.84,103.176 311.52,39.6172 375.23,76.4844 338.727,140.027"
         style="fill:#c6143f;fill-opacity:1;fill-rule:evenodd;stroke:none"
         id="path32" /><path
         d="m 1077.46,1.64844 h 50.56 V 121.523 h 0.45 l 95,-119.87456 h 78.4 V 166.621 H 1251.3 V 46.7617 h -0.45 L 1155.8,166.621 h -78.34 V 1.64844"
         style="fill:#515459;fill-opacity:1;fill-rule:evenodd;stroke:none"
         id="path34" /></g></g></svg>