<?xml version="1.0" encoding="UTF-8" standalone="no"?>
<svg
   xmlns:dc="http://purl.org/dc/elements/1.1/"
   xmlns:cc="http://creativecommons.org/ns#"
   xmlns:rdf="http://www.w3.org/1999/02/22-rdf-syntax-ns#"
   xmlns:svg="http://www.w3.org/2000/svg"
   xmlns="http://www.w3.org/2000/svg"
   version="1.1"
   id="svg872"
   xml:space="preserve"
   width="36.186668"
   height="42.84"
   viewBox="0 0 36.186668 42.84"><metadata
     id="metadata878"><rdf:RDF><cc:Work
         rdf:about=""><dc:format>image/svg+xml</dc:format><dc:type
           rdf:resource="http://purl.org/dc/dcmitype/StillImage" /><dc:title></dc:title></cc:Work></rdf:RDF></metadata><defs
     id="defs876" /><g
     id="g880"
     transform="matrix(1.3333333,0,0,-1.3333333,0,42.84)"><g
       id="g882"
       transform="scale(0.1)"><path
         d="m 135.754,0 c 0.269,0.0117188 0.43,0.0117188 0,0.0117188 V 0"
         style="fill:#161616;fill-opacity:1;fill-rule:nonzero;stroke:none"
         id="path884" /><path
         d="m 135.645,0 c -0.274,0.0117188 -0.43,0.0117188 0,0.0117188 V 0"
         style="fill:#161616;fill-opacity:1;fill-rule:nonzero;stroke:none"
         id="path886" /><path
         d="m 135.703,0 h 0.051 v 0.0117188 h -0.109 V 0 h 0.058"
         style="fill:#161616;fill-opacity:1;fill-rule:nonzero;stroke:none"
         id="path888" /><path
         d="M 4.49219,316.672 4.48047,125.891 v -0.309 c 0,0.508 0.01172,1.242 0.01172,0 0,-26.8945 12.69141,-57.0312 35.35161,-80.5273 C 62.418,21.6484 94.8711,4.90625 134.563,4.57813 c 1.968,-0.00782 0.292,-0.00782 2.273,0 39.668,0.32812 72.129,17.07027 94.707,40.47657 22.668,23.4961 35.359,53.6328 35.359,80.5273 0,1.242 0,0.508 0,0 v 0 0.309 l 0.571,190.781 H 4.49219"
         style="fill:#ed1739;fill-opacity:1;fill-rule:nonzero;stroke:none"
         id="path890" /><path
         d="M 5.97656,315.188 5.96875,126.215 v -0.297 c 0.00391,0.496 0.00781,1.227 0.00781,0 0,-26.6407 12.55074,-56.5 34.95704,-79.7696 C 63.2539,22.9727 95.3438,6.38672 134.57,6.05859 c 1.953,0 0.301,0 2.246,0 39.239,0.32813 71.329,16.91411 93.653,40.08981 22.402,23.2696 34.953,53.1289 34.953,79.7696 0,1.227 0.008,0.496 0.008,0 v 0 0.297 l 0.566,188.973 H 5.97656 M 136.328,0.0195313 V 0 h -1.25 V 0.0195313 C 93.8398,0.203125 60.0977,17.6016 36.6602,41.9375 13.1602,66.3398 0,97.7773 0,125.918 c 0,1.012 0,0.469 0.00390625,0 H 0.0117188 v 0.297 L 0.00390625,321.25 H 271.387 l -0.008,-195.035 0.008,-0.297 h 0.008 c 0,0.469 0,1.012 0,0 0,-28.1407 -13.153,-59.5782 -36.661,-83.9805 C 211.301,17.6016 177.559,0.203125 136.328,0.0195313"
         style="fill:#161616;fill-opacity:1;fill-rule:nonzero;stroke:none"
         id="path892" /><path
         d="m 96.543,293.355 -0.0196,2.352 c -0.0078,0.422 -0.0898,0.516 -0.5078,0.496 -1.1133,-0.086 -1.6797,-0.172 -2.1093,-0.422 -0.5079,-0.437 -2.3321,-2.554 -2.586,-3.152 -0.2461,-0.43 -0.3359,-0.852 -0.4101,-1.348 -0.0899,-0.426 -0.168,-0.519 -0.586,-0.437 -4.3984,0.136 -6.5859,-0.473 -7.9883,-4.188 -0.3437,-0.937 -0.2382,-2.539 0.6133,-3.629 0.1641,-0.343 0.4297,-0.511 0.7735,-0.757 0.3281,-0.247 0.3398,-0.336 0,-0.586 -0.586,-0.434 -1.1758,-0.852 -1.7696,-1.118 -0.9179,-0.265 -1.6758,0.157 -2.6992,-0.019 -0.7578,-0.086 -3.2773,-1.387 -3.6172,-2.137 -0.2422,-0.344 -0.2422,-1.015 -0.3203,-1.605 -0.0781,-0.434 -0.168,-0.516 -0.4883,-0.77 -3.4492,-2.726 -9.7343,-7.84 -10.4101,-8.183 -0.336,-0.172 -0.6641,-0.258 -1.0117,-0.348 -0.5938,-0.086 -1.1797,-0.09 -1.6875,-0.352 -0.668,-0.339 -1.3321,-1.515 -2.168,-2.375 -0.7578,-0.769 -1.7735,-1.203 -2.4375,-1.886 -0.9219,-0.922 -1.5703,-3.043 -1.0586,-4.215 0.2656,-0.762 0.9219,-1.262 1.1016,-2.02 0.0898,-0.597 -0.1485,-1.863 -0.3047,-2.793 -0.0821,-0.425 -0.0782,-0.504 -0.1719,-0.504 -0.0859,0 -0.0859,0 -0.0781,-0.504 0.0156,-0.843 -0.0703,-2.046 0.1093,-2.699 0.2579,-0.765 1.3594,-2.363 1.7852,-2.609 0.7656,-0.32 2.3672,-0.238 3.1367,-0.567 0.332,-0.164 0.5078,-0.421 0.9375,-0.578 0.5,-0.172 1.3516,-0.078 2.0195,0.02 0.504,0.008 0.5118,-0.09 0.504,-0.504 -0.1485,-2.203 0.1992,-2.457 1.9726,-3.277 0.8477,-0.414 1.8594,-0.743 2.2774,-0.668 0.5156,0.097 1.0156,0.433 1.5312,0.527 1.0039,0.258 2.2734,-0.324 3.3711,-0.223 1.0977,0.09 2.6055,1.36 3.2656,2.637 1.3321,2.293 1.4922,4.07 3.7696,4.078 2.2734,0.024 4.4804,-1.058 6.414,-0.449 0.8399,0.34 1.7774,1.023 2.6055,1.371 0.5,0.164 0.5976,0.176 0.9297,-0.168 0.3515,-0.5 0.7734,-1.094 1.1133,-1.68 0.2539,-0.503 0.4414,-2.441 0.371,-3.121 -0.2539,-1.433 -1.4843,-4.738 -2.0703,-6.004 -0.4961,-1.007 -2.4218,-3.73 -3.5937,-5 -1.5899,-1.882 -3.3281,-3.668 -4.8438,-5.531 -0.5976,-0.68 -2.9218,-5 -3.0859,-5.68 -0.6445,-2.96 -0.0234,-6.585 -2.4609,-7.96 -0.336,-0.165 -0.7618,-0.262 -1.1055,-0.512 -2.5938,-1.461 -4.75,-6.871 -5.2227,-10 -0.0976,-0.25 -0.0937,-0.598 -0.0781,-0.93 0.0039,-0.43 0,-0.512 -0.25,-0.512 l -0.2695,0.004 c -0.2422,0 -0.2539,0.075 -0.6719,0.246 -1.6016,0.914 -3.4687,1.997 -4.9102,2.485 -1.7812,0.676 -4.0585,1.16 -4.9062,1.82 -0.5898,0.422 -0.9375,1.008 -1.5352,1.692 -1.539,1.582 -2.9648,2.5 -4.1562,2.578 -1.4297,0.156 -3.7109,-0.469 -5.4883,-0.219 -1.4336,0.164 -2.5312,0.828 -3.5508,0.824 -1.2695,-0.016 -4.5468,-2.152 -5.1992,-4.176 -0.2383,-0.769 -0.2344,-1.793 -0.6601,-2.379 -0.4102,-0.515 -1.1602,-0.769 -1.4922,-1.277 -0.2657,-0.254 -0.3438,-0.59 -0.5078,-0.93 -0.4219,-0.687 -2.086,-2.629 -3.2618,-3.898 -1.6757,-1.711 -2.9297,-3.238 -4.4375,-4.856 -0.9257,-1.015 -5.2031,-4.515 -5.8711,-4.859 -1.4257,-0.683 -2.0195,-0.769 -3.1015,-2.305 -0.3321,-0.421 -0.5781,-0.933 -0.7578,-1.445 0.0117,-0.34 0.0195,-0.762 -0.1446,-1.094 -0.082,-0.422 -0.3359,-0.839 -0.4961,-1.265 -0.2617,-0.422 -0.2617,-0.422 -0.332,-0.426 l -0.0976,-0.012 c -0.086,0.004 -0.0782,-0.066 -0.0743,-0.41 v -1.101 c 0.0118,-0.422 0.0078,-0.504 0.0899,-0.508 0.2617,-0.075 0.1758,-0.172 0.2617,-0.852 0.0859,-0.25 0.2617,-0.414 0.4336,-0.648 0.3359,-0.696 0.4258,-1.782 0.1797,-2.207 -0.0742,-0.172 -0.0742,-0.172 -0.0781,-0.684 l 0.0898,-10.715 c 0.0078,-0.5 0,-0.59 0.3398,-0.91 0.4297,-0.43 1.2032,-1.101 1.6133,-1.262 0.336,-0.078 0.7656,-0.078 1.0977,-0.082 0.2539,-0.074 1.7929,-1.5 2.7265,-2.593 0.4219,-0.493 4.1641,-2.922 4.6602,-3 1.0234,-0.243 1.6055,0.011 2.1836,0.859 1.0039,1.281 3.3086,10.242 3.6094,12.945 0.0781,0.93 0.0859,1.782 -0.0157,2.707 -0.0039,0.586 -0.6093,2.016 -0.9414,2.266 -0.5117,0.504 -1.5195,0.754 -1.9492,1.34 -0.4336,0.586 -0.3476,1.344 -1.0351,1.761 -1.0157,0.586 -1.4258,0.075 -1.9414,0.907 -0.5157,1.011 0.3046,3.801 1.5703,4.234 0.25,0.082 1.0117,0.016 1.3398,-0.238 0.6914,-0.578 0.8711,-1.68 1.3789,-2.012 0.8438,-0.422 3.1094,1.453 3.875,2.309 0.7344,0.937 5.4766,10.84 6.3008,11.777 2.3555,2.813 5.8945,2.922 8.6992,0.422 0.8438,-0.848 1.7891,-1.938 2.4688,-3.035 0.6015,-1.004 1.1093,-2.016 1.8789,-2.93 1.9648,-2.43 6.4726,-6.449 6.5547,-6.969 0.0078,-0.078 0.0859,-0.164 0,-0.242 0.0039,-0.078 0.0039,-0.078 -0.418,-0.176 -0.2461,-0.082 -0.5938,-0.089 -0.8359,-0.089 -1.0157,0.085 -6.4297,1.132 -7.2774,1.464 -2.1133,0.825 -3.8125,2.082 -5.5976,2.649 -0.5821,0.262 -3.125,0.406 -3.5391,0.32 -0.7617,-0.262 -2.0156,-1.199 -2.6016,-2.219 -0.4101,-0.679 -0.4922,-1.617 -0.9922,-2.375 -0.5898,-0.765 -2.8554,-2.207 -3.7734,-3.226 -0.4141,-0.442 -0.7539,-1.11 -0.9141,-1.785 -0.1562,-0.68 -0.1406,-3.219 0.0352,-3.633 0.2422,-0.594 0.5898,-1.02 0.8555,-1.598 0.1718,-0.41 0.4375,-3.543 0.4531,-5.648 0.0351,-3.551 0.4023,-6.832 0.0898,-9.797 -0.2382,-3.113 -1.2187,-7.012 -1.7812,-10.059 -0.1641,-1.008 -0.1406,-2.949 0.0234,-3.375 0.3438,-1.011 1.2031,-1.843 1.5469,-2.941 0.3477,-0.836 0.4336,-1.86 0.5273,-2.695 0.0899,-0.508 0.0899,-0.508 0.1641,-0.5 0.0898,0 0.0938,-0.082 0.0938,-0.508 0.0039,-0.43 0.0156,-0.852 0.0859,-1.27 0.1875,-0.676 1.3008,-3.203 1.7344,-3.703 0.6757,-0.84 1.5351,-1.758 1.6132,-2.176 0.1758,-0.675 -0.0625,-1.527 0.0313,-2.199 0.0859,-0.84 2.0469,-3.109 3.2227,-3.348 0.4218,-0.082 0.9257,0.086 1.3515,0 0.5938,-0.07 1.4375,-0.57 2.207,-0.894 1.7735,-0.922 6.5899,-2.059 7.7774,-1.535 0.1601,0.082 0.918,0.851 1.0664,1.605 0.1719,0.414 0.1758,0.508 0.082,0.922 l -0.5898,9.957 c 0.0156,0.418 0,0.594 -0.1602,1.02 -1.2148,4.121 -1.0547,5.054 -2.8398,6.39 -0.3438,0.239 -0.7578,0.582 -1.1875,0.582 -0.418,0.082 -0.7617,-0.019 -1.0938,-0.015 -0.4218,0.086 -0.6797,0.507 -1.0156,0.586 -0.6016,0.254 -1.6953,-0.434 -2.3711,-0.274 -0.2461,0 -1.3594,1.434 -1.6172,2.008 -0.6758,1.348 -0.7734,2.441 0.1446,3.555 0.332,0.414 1.3437,1.109 1.7617,1.179 1.5195,0.203 2.1094,-0.476 2.6094,0.797 0.9921,2.617 -2.7735,8.5 -3.6485,12.121 -0.2461,0.832 -0.2578,1.606 -0.3515,2.524 -0.1719,1.355 0.0468,6 0.1992,6.418 0.5039,1.105 2.3515,1.804 4.9726,1.57 0.9297,-0.078 2.0313,-0.754 2.9571,-1.422 1.4414,-1.082 4.6015,-4.691 7.1601,-7.191 1.0156,-0.918 7.1328,-5.52 8.4805,-6.442 1.0234,-0.582 2.0469,-1.168 3.2305,-1.754 0.9218,-0.402 7.4414,-2.207 7.8593,-2.132 0.418,0.015 0.8477,0.101 1.0938,0.015 0.3515,-0.156 0.5195,-0.5 0.8594,-0.754 0.3398,-0.41 4.4921,-2.742 5.1679,-2.91 1.8633,-0.406 4.1485,-0.648 4.9688,1.395 0.5078,1.273 0.1562,1.855 1.3398,2.031 0.5078,0.172 1.4336,0.008 2.3594,-0.23 1.0078,-0.329 6.0978,-2.575 7.3628,-3.411 1.704,-0.988 2.969,-1.918 4.668,-2.91 0.762,-0.406 8.813,-3.137 9.231,-3.039 0.43,0 0.762,0.078 1.016,0 0.429,-0.172 0.75,-0.492 1.179,-0.582 0.422,-0.082 0.852,0.016 1.352,0 0.601,0.016 2.027,-0.484 3.133,-0.808 0.593,-0.161 9.629,-0.352 10.554,-0.168 6.321,0.98 10.617,2.777 16.203,0.043 1.192,-0.583 2.461,-1.583 3.313,-2.758 0.594,-0.934 1.031,-2.11 1.629,-2.95 0.945,-1.085 3.652,-2.328 4.914,-2.574 0.926,-0.156 3.973,-0.051 5.984,0.043 0.43,0 0.52,-0.07 0.774,-0.414 0.847,-0.918 1.531,-1.844 2.468,-2.582 0.508,-0.426 3.223,-1.683 3.633,-1.672 0.352,0.012 0.684,0.094 1.114,0.094 7.746,0.738 10.644,-2.781 13.984,-8.676 1.289,-2.183 3.351,-6.301 3.691,-7.383 0.352,-1.273 0.606,-2.453 1.121,-3.714 0.43,-1.086 1.211,-2.52 1.282,-3.114 0.019,-0.414 -0.059,-0.75 0.031,-1.179 0.074,-0.496 0.418,-1.004 0.601,-1.59 0.161,-0.68 0.188,-2.614 0.278,-3.973 0.008,-0.414 0.008,-0.504 -0.07,-0.512 -0.086,0.008 -0.086,0.008 -0.086,-0.504 -0.383,-3.9683 -0.215,-4.2222 -1.973,-7.3511 -1.738,-3.3125 -2.816,-5.6055 -5.688,-7.2266 -0.918,-0.5117 -2,-0.9375 -2.593,-1.4609 -0.5,-0.5 -1.496,-2.1914 -1.496,-2.7891 0.007,-0.5898 0.339,-1.0937 0.273,-1.4335 -0.09,-0.254 -0.43,-0.5079 -0.762,-0.8516 -1.269,-1.1055 -4.148,-7.9649 -4.48,-9.6524 -0.168,-0.7578 -0.078,-0.9296 0.68,-1.6054 0.175,-0.086 0.265,-0.2461 0.421,-0.3281 0.262,-0.0899 0.262,-0.0899 0.762,-0.0821 l 6.692,0.0547 c 0.242,0 0.664,0.0977 0.906,0.0977 l 4.98,0.957 c 0.41,0.0937 0.496,0.1797 0.664,0.3398 0.75,0.6094 2.617,0.7891 3.457,1.0508 1.516,0.4219 4.793,3.0742 5.196,4.5938 0.078,0.5195 0.078,1.1093 0.156,1.6836 0.32,1.9531 0.996,2.2968 -0.281,3.9687 -0.61,0.9297 -0.864,1.0078 -0.864,2.2735 0,0.4296 0.078,0.7656 0.246,1.1835 0.489,1.1055 2.332,2.629 2.918,3.8165 0.168,0.3554 0.247,0.6914 0.422,1.0234 0.157,0.3359 0.496,0.6836 0.657,0.9375 0.339,0.5078 0.242,0.918 0.418,1.2734 0.156,0.2578 2.707,0.9453 3.117,0.8711 1.011,-0.082 1.687,-0.5859 2.183,-0.5078 1.789,0.2695 0.793,7.6914 -0.152,9.7106 -0.676,1.434 -1.875,2.864 -2.734,4.286 -1.711,3.109 -2.239,6.828 -3.032,11.121 -0.105,0.421 -0.093,0.507 0.41,0.336 0.852,-0.153 1.262,-0.411 1.868,-0.821 0.925,-0.668 3.984,-3.945 4.422,-4.695 0.429,-0.586 0.683,-1.172 1.117,-1.766 0.758,-1.179 1.863,-2.101 2.722,-3.265 0.594,-0.926 2.688,-8.0902 3.118,-9.598 0.425,-1.4453 0.964,-5.2266 0.972,-6.4883 0.031,-2.8711 -0.847,-8.5469 -2.351,-11.4179 -0.41,-0.9297 -3.25,-5.3516 -4.676,-5.8672 -0.258,-0.086 -0.5,-0.168 -0.766,-0.1719 -1.011,-0.3516 -2.097,-1.3633 -2.351,-2.3008 -0.157,-0.6797 -0.071,-1.4297 -0.313,-2.0312 -0.156,-0.5938 -0.664,-1.0039 -1.164,-1.6133 -0.176,-0.2461 -4.922,-8.9766 -4.898,-10.7539 0.008,-0.7539 0.425,-0.9219 1.531,-1.418 0.422,-0.168 0.508,-0.168 0.93,-0.1602 l 4.644,0.0352 c 0.324,-0.0039 0.422,-0.0039 0.422,-0.082 v -0.0899 c 0,-0.082 0.078,-0.0859 0.496,-0.0742 1.535,0.1758 3.637,0.2734 4.641,0.5391 1.179,0.3437 2.195,1.0234 3.281,1.3789 0.496,0.1719 1.023,0.2539 1.523,0.4258 2.61,0.7851 3.86,1.7265 4.872,2.9101 0.5,0.5977 1.25,2.1172 1.156,2.3828 -0.078,0.5039 -0.578,0.8399 -0.598,1.2578 0.078,0.2539 0.418,0.6016 0.586,1.0196 0.164,0.3359 0.078,1.082 -0.098,1.7734 -0.781,2.3477 -1.378,2.9375 -0.039,5.1524 0.821,1.4296 2.84,3.3945 3.34,4.4882 0.332,0.8516 0.321,1.2657 1.004,1.2813 0.5,0.082 1.359,-0.0742 1.926,0.0117 0.605,0.1719 0.937,0.7695 1.433,0.8516 0.52,0.1757 1.282,-0.0664 1.782,0.0195 1.687,0.4258 1.902,4.0625 1.726,5.6602 -0.285,4.1367 -1.484,5.3945 -3.957,9.8515 -0.769,1.4258 -1.375,2.7735 -1.902,4.293 -1.277,3.4497 -2.258,9.2617 -3.816,13.7307 -0.43,1.168 -0.786,3.109 -0.708,3.445 0.176,0.504 0.5,0.848 0.586,1.356 0.168,0.675 -0.359,2.289 -0.625,2.871 -0.586,0.836 -4.414,3.593 -5.515,4.257 -1.426,0.832 -2.957,1.239 -4.231,2.071 -0.593,0.34 -2.215,2.094 -2.808,3.027 -1.535,2.262 -4.27,6.543 -5.032,7.465 -2.644,2.848 -4.335,2.93 -3.691,6.129 0.254,0.945 0.574,1.769 0.742,2.719 0.078,0.246 0.164,0.586 0.078,0.832 0,0.433 -0.007,0.422 0.079,0.437 0.078,-0.004 0.085,0.082 0.167,0.492 0.079,0.344 0.079,0.774 0.079,1.102 0.054,2.367 -0.039,6.332 -0.996,8.441 -0.266,0.571 -0.61,0.996 -0.786,1.598 -0.164,0.5 0.078,2.863 0.227,4.551 0.305,3.797 -1.34,10.293 -3.32,14.32 -0.176,0.508 -0.43,0.941 -0.696,1.43 -0.254,0.347 -0.254,0.422 0.176,0.426 1.352,-0.071 2.856,-0.137 4.047,0.039 0.684,0.086 3.797,1.378 4.551,1.878 0.918,0.61 2.508,1.797 3.172,3.079 0.246,0.504 0.339,0.933 0.578,1.437 0.918,1.613 1.922,2.031 3.367,1.797 1.863,-0.402 2.707,-0.813 3.144,-2.266 0.157,-0.496 0.008,-2.695 -0.144,-3.187 -0.41,-1.195 -3.508,-4.68 -4.758,-7.063 -2.742,-5.07 -1.074,-12.914 3.262,-17.601 2.812,-2.938 4.68,-4.184 5.281,-7.055 0.363,-1.859 0.117,-3.793 -1.387,-4.57 -0.339,-0.254 -0.664,-0.34 -1.089,-0.258 -1.196,0.254 -1.711,1.25 -1.946,0.316 -0.429,-1.265 1.113,-2.601 2.481,-2.675 1.582,-0.153 4.961,1.296 5.879,2.418 1.164,1.429 1.32,2.878 1.726,5.238 0.07,0.426 0.168,0.43 0.332,0.004 0.949,-2.016 0.871,-3.965 0.473,-5.817 -0.254,-0.687 -1.25,-2.625 -1.574,-2.804 -0.926,-0.442 -1.621,0.254 -1.602,-1.028 0.098,-1.093 1.184,-1.172 2.195,-0.82 0.411,0.172 3.45,2.727 3.774,3.32 0.332,0.504 1.414,3.641 1.48,4.235 -0.008,1.093 -0.093,2.359 -0.191,3.539 0,0.433 -0.012,0.508 0.074,0.504 l 0.18,0.015 c 0.078,0 0.078,0 0.254,-0.508 0.535,-2.027 0.613,-2.71 0.547,-5.058 0,-0.426 0,-0.52 0.171,-0.52 0.754,-0.074 1.02,0.938 1.34,1.871 0.324,0.848 0.567,1.79 0.645,2.637 -0.012,0.66 -0.086,1.344 -0.012,1.598 0.09,0.164 0.344,0.164 0.512,-0.004 0.242,-0.168 0.515,-0.926 0.691,-1.688 0.086,-0.75 -0.371,-7.507 -0.527,-8.011 -1.16,-3.047 -3.34,-5.352 -7.039,-6.133 -1.106,-0.188 -2.356,-0.102 -3.215,0.898 -0.176,0.25 -0.254,0.426 -0.344,0.672 -0.086,0.504 -0.008,0.942 -0.679,0.672 -0.684,-0.254 -0.84,-1.359 -0.5,-2.027 0.539,-1.094 2.214,-2.188 3.144,-2.426 0.606,-0.16 3.801,-0.133 4.563,0.043 0.671,0.156 5.046,2.391 5.632,2.91 2.598,2.141 3.516,3.984 5.078,7.805 1.165,2.875 1.661,4.32 1.473,6.179 -0.445,3.196 -1.902,5.719 -3.609,8.571 -0.168,0.426 -0.168,0.426 0.164,0.515 1.347,0.172 1.777,-0.836 3.301,-1.414 0.421,-0.168 2.714,-0.148 3.211,0.118 1.261,0.429 4.191,3.984 3.566,5.761 -0.254,0.5 -0.84,0.5 -1.25,-0.097 -0.84,-1.11 -0.508,-1.52 -1.602,-1.536 -3.703,-0.199 -5.421,3.164 -4.941,6.543 0.09,1.106 0.652,3.047 1.23,4.231 0.997,2.301 1.329,2.633 1.907,6.012 0.23,1.019 0.281,6.082 0.117,6.839 -0.277,1.262 -1.477,4.622 -2.758,5.981 -1.023,1.078 -1.707,1.492 -1.961,2.676 -0.437,2.191 0.313,2.961 0.801,4.566 0.176,0.508 -0.125,6.422 -0.313,7.34 -0.781,3.113 -2.05,4.715 -4.953,7.383 -1.531,1.508 -1.863,1.672 -3.726,2.429 -1.274,0.403 -3.379,0.973 -4.067,0.973 -2.691,-0.019 -3.632,-0.617 -4.129,0.309 -0.183,0.414 -0.429,1.09 -0.781,1.59 -0.683,1.175 -2.793,2.523 -3.984,3.019 -4.324,1.898 -10.313,1.09 -14.09,-0.621 -3.117,-1.457 -5.551,-3.5 -7.207,-5.973 -0.512,-0.683 -2.492,-5.332 -2.656,-6.097 -0.578,-2.707 -0.285,-7.59 1.511,-9.786 1.192,-1.406 3.496,-2.835 4.161,-3.753 0.261,-0.422 1.203,-2.692 1.203,-3.368 0.007,-0.507 -0.493,-1.781 -0.735,-2.203 -0.254,-0.426 -2.429,-2.64 -2.937,-2.804 -0.91,-0.43 -2.61,-0.7 -3.535,-0.7 -0.598,0.075 -5.586,1.973 -6.606,2.571 -1.941,1.148 -4.058,2.738 -6.363,4.324 -0.754,0.586 -8.469,4.242 -8.813,4.238 -0.671,-0.094 -1.265,-0.183 -1.675,-0.015 -0.254,0.078 -0.532,0.41 -0.852,0.503 -0.43,0.157 -1.113,0.075 -1.687,-0.031 -0.774,0.008 -2.297,0.5 -3.555,0.742 -1.106,0.246 -8.098,-0.402 -12.07,-0.515 -6.079,-0.219 -12.512,1.758 -18.43,3.906 -1.524,0.492 -4.16,1.742 -4.57,2.156 -0.684,0.582 -1.368,1.598 -2.469,2.09 -0.434,0.246 -0.434,0.246 0,0.594 0.762,0.605 1.758,1.859 2.078,2.625 0.254,0.519 0.344,1.027 0.676,1.363 0.371,0.442 0.75,0.625 0.945,0.828 l 0.012,-0.004 1.258,1.164 c 0.156,0.086 0.312,0.239 0.378,0.391 0.325,0.426 1.067,2.965 1.235,3.906 0.066,1 0.066,2.352 -0.195,3.114 -0.254,1.253 -0.958,3.195 -0.958,3.628 0.157,0.836 1.258,1.938 1.747,3.04 0.168,0.515 0.332,0.937 0.418,1.437 0.168,0.762 -0.118,4.223 -0.301,5.07 -0.176,0.758 -1.465,3.188 -1.797,3.446 -0.344,0.328 -0.676,0.5 -0.774,0.847 -0.078,0.246 0,0.586 0.168,0.914 0.247,0.938 0.664,2.2 0.899,3.481 0.156,0.762 0.144,3.113 -0.02,3.617 -0.183,0.43 -0.351,0.766 -0.515,1.18 -0.176,0.414 -0.278,1.008 -0.434,1.511 -0.176,0.684 -1.891,3.54 -2.234,3.961 -0.852,0.661 -1.699,1.075 -2.207,1.754 -0.176,0.418 -0.43,1.672 -0.352,2.282 0.235,2.781 0.637,3.457 -0.984,6.91 -1.035,2.351 -3.41,4.105 -6.449,4.668 -0.426,0.082 -0.516,0.16 -0.516,0.593 -0.281,3.122 0.059,3.372 -1.301,5.055 -0.437,0.504 -0.945,1.086 -1.453,1.418 -0.762,0.336 -1.445,0.324 -1.699,1.07 -0.086,0.356 -0.086,0.684 -0.176,1.032 -0.254,0.754 -2.559,2.925 -2.645,3.007 -0.507,0.336 -1.269,0.672 -2.113,0.75 -2.703,0.477 -5.828,-0.05 -7.262,1.629 -1.464,1.758 -3.546,9.844 -3.546,10.61 0.07,0.832 0.136,1.933 -0.032,2.437 -0.339,1.098 -1.023,1.254 -1.863,1.008 -2.273,-0.617 -2.512,-1.453 -3.508,-3.508 -0.418,-0.84 -1.004,-2.027 -1.004,-2.617 0.008,-0.926 0.098,-1.773 -0.9957,-1.352 -0.6641,0.243 -0.9375,0.836 -0.8516,1.598 0.082,0.676 0.3242,0.512 1.0859,0.938 0.9184,0.515 1.0044,1.097 0.3244,1.515 -0.7619,0.5 -1.758,0.164 -3.0392,-0.097 -0.418,-0.09 -0.5078,-0.09 -0.5078,0.421"
         style="fill:#161616;fill-opacity:1;fill-rule:evenodd;stroke:none"
         id="path894" /><path
         d="m 204.668,113.242 -0.813,3.871 c -0.156,0.43 -0.156,0.504 0,0.68 0.254,0.328 0.852,0.762 1.008,0.762 0.938,0.008 1.375,-1.668 1.629,-2.692 0.442,-1.925 0.617,-3.789 0.988,-5.648 0.43,-1.664 1.036,-4.031 1.817,-5.465 0.848,-1.59 2.285,-3.016 2.988,-4.617 0.344,-0.6682 1.113,-3.7072 0.867,-4.7189 -0.32,-1.4453 -1.668,-2.1289 -3.101,-2.4805 -0.578,-0.082 -1.606,-0.0039 -1.86,0.1562 -0.332,0.3399 -0.671,1.1797 -1.265,0.836 -0.254,-0.1719 -0.664,-1.2656 -0.754,-1.6914 0.012,-0.4219 0.183,-0.8321 0.183,-1.3438 0.012,-0.4258 -0.32,-1.5195 -0.828,-2.2031 -0.664,-1.1211 -1.582,-2.0312 -2.082,-3.3203 -0.41,-0.7539 -0.574,-1.6953 -0.816,-2.5313 -0.18,-0.414 -0.168,-0.5117 -0.676,-0.4257 l -0.93,0.0742 c -0.503,-0.0039 -0.503,-0.0039 -0.593,-0.1719 0.008,-0.5 0.175,-0.4258 1.355,-0.668 0.852,-0.1679 1.875,-1.5859 1.723,-2.7656 -0.012,-0.2617 -0.078,-0.3437 -0.266,-0.3437 -0.156,0 -0.32,0.0117 -0.422,-0.0157 -1.179,0.2539 -2.273,0.9141 -3.64,1.25 -0.664,0.2461 -5.137,0.2149 -7.754,0.2735 -0.418,0 -0.52,0 -0.52,-0.1758 0.012,-0.1641 0.102,-0.2539 0.188,-0.3281 1.347,-0.8399 4.304,-0.4688 5.73,-0.3672 2.453,0.0898 4.817,-0.4727 6.274,-2.4102 1.187,-1.5976 0.855,-2.0195 -0.743,-3.3008 -1.671,-1.3554 -2.089,-1.6992 -4.035,-2.3125 -1.433,-0.5078 -9.09,-2.0937 -10.019,-2.1015 -1.524,-0.0938 -2.871,0.0742 -4.309,0.2148 -0.418,0.0117 -0.508,0.0899 -0.429,0.5117 0.402,1.9454 0.656,3.125 1.496,4.6446 0.742,1.2656 2.004,3.3086 2.238,4.0781 0.164,0.582 0.164,1.1719 0.406,1.6016 0.18,0.2539 0.344,0.4296 0.512,0.7656 0.164,0.4297 -0.012,1.1758 0.055,1.6914 0.089,1.3476 1.347,1.2773 3.195,2.3086 0.508,0.3398 0.918,0.6719 1.426,1.1094 0.175,0.1601 0.339,0.25 0.593,0.4179 0.254,0.086 0.332,0.1797 0.586,0.5078 l 4.758,7.3008 c 0.067,0.1719 0.242,0.5117 0.32,0.5899 l 0.176,0.3437 c -0.008,0.086 0.078,0.1719 0.246,0.1758 h 0.52 c 0.242,0 0.332,-0.0898 0.242,-0.4297 l -0.234,-1.1797 c -0.086,-0.5078 -0.086,-0.5078 0.168,-0.414 0.164,0.0898 0.504,0.2539 0.593,0.1601 0,0 0,-0.1562 0.086,-0.1601 0.254,-0.3399 0.91,0.6836 0.996,0.7695 1.094,0.8437 1.86,0.2695 2.356,1.3672 0.5,0.9336 -0.75,0.164 -1.438,0.164 -0.847,-0.0156 -2.957,1.4102 -3.218,2.4219 -0.266,1.0078 0.156,1.5117 0.398,2.2852 0.574,1.855 -0.898,7.422 -1.328,8.93 -0.352,1.601 -3.203,9.257 -3.547,9.757 -0.254,0.434 -0.516,0.676 -0.523,1.262 0.086,0.266 0.086,0.348 0.586,0.438 0.691,0.086 1.531,0.258 2.214,0.183 0.325,-0.086 2.95,-2.179 3.223,-2.672 0.344,-0.421 0.938,-1.683 1.531,-1.929 0.254,-0.168 0.586,-0.086 0.832,-0.25 0.262,-0.09 0.52,-0.598 0.618,-1.192 0.339,-0.914 0.269,-2.007 0.933,-2.004 0.18,-0.078 0.168,-0.003 0.09,0.426"
         style="fill:#ffffff;fill-opacity:1;fill-rule:evenodd;stroke:none"
         id="path896" /><path
         d="m 70.875,199.457 0.0313,-3.977 c -0.0079,-0.417 0.0117,-0.503 -0.0743,-0.929 -0.0859,-0.418 -0.4218,-0.934 -0.6757,-1.188 -0.25,-0.242 -0.6758,-0.504 -0.918,-0.765 -0.086,-0.243 -0.3399,-0.844 -0.4141,-1.258 0.0039,-0.344 0.0039,-0.434 -0.4179,-0.262 l -0.336,0.172 c -0.3359,0.078 -0.3476,0.156 -0.1797,0.328 0.418,0.418 0.7578,1.192 0.5,1.43 -0.4297,0.43 -2.3476,-1.621 -2.8593,-1.961 -0.5938,-0.332 -1.1719,-0.512 -2.0196,-0.426 -0.4179,0.07 -0.5,0.078 -0.4219,-0.262 0.2657,-0.921 0.6016,-0.843 1.375,-1.511 0.418,-0.414 0.6641,-1.09 1.0196,-1.586 0.6719,-1.266 1.2773,-1.438 2.7187,-1.766 0.4102,-0.07 0.4922,-0.16 0.5,-0.5 l 0.0039,-0.324 c 0.0039,-0.348 -0.0742,-0.434 -0.5,-0.352 -0.5,-0.007 -1.0078,0.082 -1.5273,0.246 -1.2656,0.407 -7.7344,7.364 -8.168,7.954 -3.414,4.519 -3.2539,5.878 -6.8086,7.625 -2.6172,1.246 -4.9062,1.558 -7.332,0.027 -0.5156,-0.344 -0.9336,-0.684 -1.5156,-0.942 -0.6836,-0.335 -1.4453,-0.441 -2.1133,-0.695 -1.5156,-0.605 -4.2813,-3.75 -4.7656,-5.191 0,-0.246 -0.0821,-0.422 0.0039,-0.5 0.5078,-0.422 1.25,1.437 1.5078,1.875 0.6601,1.094 2.4219,2.117 3.8594,2.976 0.414,0.172 0.414,0.172 0.2461,-0.254 -1.3243,-2.793 -3.4805,-7.535 -4.0586,-8.464 -0.8399,-1.196 -1.6797,-2.122 -2.5977,-3.247 -0.3398,-0.32 -0.3398,-0.32 -0.668,0.094 -0.2656,0.328 -0.6093,0.754 -1.0312,1.086 -0.332,0.254 -1.6914,0.488 -2.1875,0.403 -1.6172,-0.172 -3.3594,-2.801 -3.6875,-4.493 -0.082,-0.422 0.0312,-3.812 0.7187,-4.047 0.3321,-0.168 1.1719,0.168 1.6758,0.09 0.5938,-0.074 2.6406,-2.261 2.8008,-2.5 1.6211,-2.187 0.5547,-5.75 -0.1719,-9.129 -0.5,-2.195 -0.9765,-4.73 -2.3164,-6.179 -0.2539,-0.328 -0.3359,-0.336 -0.7656,-0.176 -1.082,0.504 -6.4336,3.086 -7.1211,4.586 -0.0898,0.25 -0.0938,0.348 0.332,0.508 1.8594,1.035 2.1094,1.117 2.8438,2.644 0,0 2.4883,6.184 3.4219,6.867 0.4101,0.332 0.996,0.516 1.25,0.848 0.1757,0.262 0.1601,0.52 0.0898,0.598 -0.5977,0.496 -2.7852,-1.797 -3.1172,-2.305 -0.2422,-0.344 -0.5,-0.758 -0.6562,-1.191 -0.586,-1.266 -0.9063,-3.051 -1.5821,-3.887 -0.9179,-1.281 -2.9336,-2.645 -3.1797,-3.317 -0.0859,-0.261 -0.0859,-0.425 -0.4961,-0.351 -0.6054,0.168 -0.9375,1.094 -0.5273,1.523 0.418,0.508 1.0117,0.348 0.75,1.442 -0.3437,1.015 -0.7695,0.918 -0.7773,2.094 0.0898,0.511 0.1523,0.937 0.3242,1.359 0.0898,0.668 0.2109,6.16 -0.3047,7.508 -0.5195,1.429 -1.2852,1.937 -0.5391,3.207 0.1641,0.34 0.4297,0.679 0.5742,1.097 0.2657,0.504 0.4258,1.266 0.5821,1.86 0.0898,0.261 0.1679,0.515 0.3437,0.777 0.2461,0.41 4.5274,3.488 6.7852,5.188 1.3398,1.031 2.3476,2.05 3.3594,3.148 1.6757,1.629 7.4453,8.586 7.8554,9.352 1.4063,2.543 1.7344,4.906 3.8321,5.769 0.4336,0.184 0.8515,0.258 1.3554,0.348 1.2657,0.101 4.3946,-0.977 5.4883,-0.793 1.5938,0.18 1.9375,1.101 3.875,0.531 1.4414,-0.328 2.2969,-1.676 3.4883,-3.351 0.2578,-0.418 0.3516,-0.497 0.7695,-0.668 3.5625,-1.489 10.0742,-4.137 10.6758,-4.637 0.5039,-0.422 1.0039,-0.844 1.4453,-1.258 0.3281,-0.336 0.418,-0.414 0.4297,-0.918"
         style="fill:#ffffff;fill-opacity:1;fill-rule:evenodd;stroke:none"
         id="path898" /><path
         d="m 138.008,213.125 c -0.188,0.523 -0.586,3.316 -0.508,3.563 0.242,0.347 0.586,0.515 0.742,0.851 0.242,0.684 -0.012,2.289 -0.351,2.871 -0.52,0.84 -2.547,2.516 -3.743,2.926 -0.339,0.082 -0.425,0.082 -0.339,-0.266 0.019,-0.078 0.019,-0.078 0.429,-0.406 1.375,-1.09 3.399,-2.336 2.481,-3.531 -0.086,-0.086 -0.164,-0.18 -0.34,-0.25 -0.07,-0.172 -0.168,-0.094 -0.578,0.16 -1.281,0.824 -3.582,2.25 -3.992,3.43 -0.364,0.843 -0.278,1.609 -1.039,1.679 0,0 -0.086,0 -0.172,0.004 0,0 0,0 0.093,-0.347 0.09,-0.754 1.118,-2.258 1.274,-2.438 0.933,-1.172 2.469,-2.176 3.25,-3.433 1.094,-1.512 1.543,-3.188 1.223,-4.875 -0.333,-1.282 -0.5,-2.883 -1.418,-3.063 -0.848,-0.258 -0.176,1.348 -0.11,3.457 -0.008,0.426 -0.965,2.781 -1.297,2.953 -1.015,0.914 -3.3,1.828 -3.828,3.512 -0.097,0.508 -0.097,1.613 -0.437,1.851 -0.071,0.09 -0.332,0.082 -0.422,0 -0.574,-0.601 0.801,-2.949 1.219,-3.367 1.875,-2.015 2.968,-1.918 3.5,-3.933 0.593,-1.95 0.281,-4.977 -1.235,-5.68 -0.508,-0.246 -1.18,-0.336 -1.433,-0.258 -0.672,0.332 0.332,1.278 0.734,2.289 0.672,1.61 -0.102,3.723 -1.547,4.453 -0.328,0.168 -0.762,0.25 -1.082,0.504 -0.281,0.16 -1.121,1.336 -1.387,2.016 -0.078,0.422 -0.078,0.422 -0.261,0.418 -0.332,0.082 -0.325,-0.09 -0.161,-0.676 0.188,-0.676 0.872,-2.016 1.29,-2.344 0.332,-0.351 0.839,-0.504 1.183,-0.925 1.024,-1.012 1.211,-2.61 0.535,-3.465 -0.742,-1.098 -1.504,-1.02 -2.105,-0.176 -0.434,0.676 -1.125,1.93 -1.446,1.504 -0.421,-0.336 1.532,-2.774 2.215,-3.438 2.141,-2.351 4.844,-4.265 8.164,-6.097 4.661,-2.496 10.75,-4.395 15.645,-5.285 1.191,-0.149 14.355,-0.555 14.949,-0.465 2.61,0.695 5.227,0.293 10.219,-0.774 3.133,-0.726 6.172,-1.89 9.051,-3.461 2.988,-1.754 6.035,-4.008 8.906,-5.504 2.726,-1.332 6.445,-2.734 8.641,-2.296 3.371,0.531 5.625,2.406 6.195,5.445 0.418,1.707 -0.285,4.476 -1.477,5.996 -0.847,1.004 -2.461,1.832 -3.41,2.918 -2.027,2.176 -2.664,6.891 -2.168,9.187 0.168,0.762 2.324,5.496 2.727,6.016 1.25,1.523 4.289,3.906 5.949,4.77 0.602,0.257 7,1.738 7.754,1.75 2.371,0.113 7.539,-0.872 8.98,-3.231 1.282,-1.926 0.957,-2.691 2.903,-3.008 3.711,-0.554 4.453,0.285 7.675,-1.035 2.207,-0.918 5.364,-4.433 6.309,-6.961 0.606,-1.765 1.145,-6.137 0.742,-8.18 -0.566,-2.949 -1.484,-4.82 0.645,-7.343 0.429,-0.407 0.847,-0.664 1.191,-1.086 1.875,-2.18 2.332,-6.649 2.266,-9.516 -0.071,-1.097 -0.156,-1.949 -0.313,-3.117 -0.156,-1.023 -2.461,-7.961 -2.629,-8.047 -0.086,0.004 -0.183,0 -0.261,0.004 -0.078,-0.012 -0.078,0.09 -0.164,0.422 -0.012,0.336 -0.012,0.668 0.078,0.926 0.718,5.832 1.98,6.257 1.265,10.554 -0.183,0.676 -0.261,1.438 -0.535,2.118 -0.078,0.41 -0.078,0.492 -0.254,0.5 l -0.066,-0.008 c -0.102,0 -0.09,-0.078 -0.09,-0.504 0.188,-1.856 0.547,-4.473 0.469,-5.399 -0.242,-1.695 -0.996,-3.296 -1.321,-4.98 -0.574,-2.551 -0.632,-5.156 0.149,-7.102 1.035,-2.867 2.668,-6.218 5.449,-6.191 0.418,0 0.508,-0.004 0.508,-0.176 0,-0.078 0,-0.16 0,-0.25 -0.078,-0.164 -1.602,-0.18 -2.195,-0.023 -3.633,0.992 -6.196,3.922 -6.907,7.468 -0.254,0.93 -0.339,1.93 -0.254,3.032 0.04,3.125 1.036,8.109 0.84,9.715 -0.097,1.187 -1.054,4.894 -2.656,5.722 -0.184,0.168 -0.344,0.16 -0.43,-0.004 -0.175,-0.172 0.086,-0.847 0.254,-1.433 0.352,-0.586 0.617,-1.188 0.782,-1.848 0.363,-1.273 0.214,-6.246 0.144,-6.848 -0.152,-1.261 -0.652,-2.449 -0.906,-3.796 -0.242,-1.106 -0.625,-4.567 -0.469,-5.582 0.188,-0.672 0.527,-1.34 0.625,-1.848 0.066,-0.422 -0.012,-0.758 0,-1.106 0,-0.504 0.684,-2.011 1.199,-2.851 3.157,-4.879 4.106,-5.121 4.321,-10.942 0.195,-3.882 -0.063,-4.722 -1.543,-7.773 -1.172,-2.379 -1.836,-3.219 -4.438,-4.684 -0.34,-0.246 -0.437,-0.171 -0.176,0.172 0.578,0.938 1.164,1.875 1.575,2.879 0.351,0.68 1.386,6.594 1.378,7.531 -0.097,2.7 -0.89,5.731 -2.589,8.079 -2.825,3.777 -4.59,4.691 -5.887,8.39 -0.266,0.852 -0.715,4.137 -0.637,4.723 0.078,0.586 0.332,1.097 0.574,1.769 0.254,0.856 0.723,4.321 0.637,5.153 -0.012,0.777 -0.168,1.359 -0.351,2.121 0,0.16 -0.098,0.418 -0.188,0.586 -0.074,0.25 -0.164,0.254 -0.242,0.25 h -0.078 c -0.176,0.011 -0.176,0.011 0,-0.504 0.176,-0.848 0.437,-1.692 0.437,-2.613 0.012,-1.274 -1.062,-4.477 -1.375,-6.606 -0.246,-1.769 0.282,-5.48 0.989,-6.988 0.835,-1.852 2.976,-4.285 4.089,-6.297 0.164,-0.5 0.43,-0.926 0.528,-1.434 0.168,-0.414 0.176,-0.511 0.156,-0.925 l 0.027,-1.856 c 0,-0.43 0,-0.43 -0.078,-0.426 l -0.262,-0.004 c -0.078,0 -0.167,0.004 -0.339,0.422 -0.332,0.84 -0.754,1.598 -1.282,2.352 -1.101,1.855 -5.793,6.719 -7.589,9.394 -1.114,1.508 -1.368,2.692 -1.29,4.633 -0.007,0.504 -0.007,0.504 -0.269,0.508 h -0.246 c -0.266,-0.012 -0.344,-0.004 -0.254,-0.512 0.461,-5.054 1.894,-5.468 5.477,-10.429 1.972,-2.59 3.605,-6.973 2.707,-10.528 -0.235,-1.094 -0.5,-1.429 -0.918,-1.363 -0.079,0.004 -0.079,0.004 -0.086,0.352 0,0.246 -0.012,0.503 -0.012,0.75 -0.441,2.957 -1.399,6.144 -2.664,7.828 -1.027,1.347 -3.664,3.011 -5.277,4.769 -1.036,1.18 -2.809,3.867 -3.165,5.211 -0.339,1.012 -0.527,3.121 -0.625,4.723 -0.093,0.422 -0.093,0.422 -0.171,0.25 -0.09,-0.078 -0.168,-0.254 -0.168,-0.332 -0.579,-2.285 0.031,-4.735 1.152,-6.664 2.656,-5.039 6.719,-8.297 5.852,-13.121 -0.176,-0.668 -0.5,-2.196 -1.348,-2.122 -0.09,0.004 -0.09,0.004 -0.09,0.504 l -0.02,1.774 c 0,0.426 0.008,0.512 -0.167,0.93 -0.348,1.355 -1.461,3.453 -1.891,4.039 -0.676,0.836 -2.121,2.086 -3.313,3.082 -2.382,2.191 -3.925,5.8 -4.296,9.097 -0.168,1.176 0.058,4.301 0.207,6.504 0,0.403 -0.012,0.5 0.339,0.84 3.582,4.242 5.762,5.867 5.325,10.004 -0.293,3.199 -1.985,3.949 -5.539,4.68 -0.508,0.078 -0.508,0.078 -0.5,0.16 l -0.016,0.172 c 0.008,0.086 0.008,0.086 0.418,0.261 3.203,1.375 4.055,1.121 6.687,-1.218 0.246,-0.25 0.508,-0.422 0.598,-0.672 0.43,-0.59 0.684,-1.504 1.023,-1.094 0.676,0.773 -1.968,3.707 -2.734,4.305 -1.023,0.824 -3.394,1.226 -4.656,0.882 -0.918,-0.265 -2.344,-1.277 -2.852,-2.054 -0.742,-1.02 -1.328,-3.215 -1.992,-4.578 -1.328,-2.45 -3.848,-3.481 -6.387,-4.184 -1.164,-0.348 -2.773,-0.519 -3.437,-0.453 -1.445,0.078 -2.883,0.922 -4.5,1.074 -0.578,0.082 -1.184,0.067 -1.77,0.063 -0.41,-0.086 -0.41,-0.086 -0.078,-0.414 2.383,-2.356 3.145,-2.938 4.004,-4.704 0.598,-1.171 2.07,-5.132 2.332,-6.226 0.266,-1.441 0.903,-7.492 0.735,-8.852 -0.235,-1.527 -0.645,-2.207 -0.379,-3.554 0.164,-1.266 1.035,-2.868 1.297,-4.285 0.175,-0.598 0.175,-1.184 0.261,-1.864 0.11,-2.441 0.473,-4.726 0.141,-6.414 -0.235,-1.258 -0.988,-3.043 -1.574,-4.57 -0.164,-0.426 -0.164,-0.504 0.351,-0.586 1.348,-0.328 1.778,-0.738 2.891,-1.914 0.937,-1.012 1.863,-2.02 2.805,-3.274 4.175,-5.789 4.285,-8.066 7.429,-10.238 1.692,-1.172 4.153,-2.324 6.184,-3.754 0.679,-0.418 2.637,-2.5 2.73,-2.847 0.332,-0.844 0.024,-2.028 -1.258,-2.286 -1.335,-0.253 -1.093,1.004 -3.652,3.008 -0.586,0.418 -1.277,0.746 -1.777,0.828 -0.176,0.086 -0.254,0.075 -0.254,-0.257 0.09,-0.165 0.078,-0.243 0.437,-0.497 1.953,-1.757 2.121,-1.671 2.539,-2.859 0.278,-0.926 1.047,-3.285 0.122,-3.797 -0.668,-0.344 -1.946,1.25 -2.708,1.586 -0.261,0.176 -0.515,0.16 -0.761,0.172 -0.43,-0.012 -0.43,-0.012 0,-0.254 3.144,-1.93 4.402,-3.351 6.133,-7.219 0.253,-0.422 0.253,-0.422 0.175,0.016 -0.625,3.109 -1.23,5.215 0.286,7.672 0.242,0.426 0.234,0.344 0.32,-0.086 1.308,-5.223 4.265,-16.5118 5.976,-19.6993 2.325,-4.4453 3.411,-4.9492 3.868,-8.4922 0.273,-1.2578 0.363,-2.8672 0.461,-4.2969 0.007,-0.4218 0.007,-0.5 -0.508,-0.6015 -0.508,-0.086 -1.172,-0.1836 -1.606,-0.4336 -0.664,-0.2578 -0.906,-0.6836 -1.344,-0.7696 -0.839,-0.0898 -2.445,0.7344 -3.109,0.5664 -0.183,-0.0742 -0.34,-0.2539 -0.516,-0.5898 -0.167,-0.1719 -0.246,-0.3477 -0.253,-0.5977 0.007,-0.0937 0.007,-0.0937 0.097,-0.0781 0.086,0 0.086,0 0.086,-0.0937 -0.097,-0.1758 -0.008,-0.0782 0.168,-0.1602 0.164,0 0.164,-0.3437 0.086,-0.5976 -0.32,-1.4414 -2.168,-3.0547 -3.172,-4.3399 -0.918,-1.0976 -1.496,-2.1133 -1.902,-3.5508 -0.168,-0.414 -0.18,-0.5 -0.688,-0.5117 l -1.511,-0.0039 c -0.34,-0.0117 -0.43,-0.0117 -0.418,-0.1797 l -0.012,-0.3281 c 0.019,-0.1719 0.098,-0.2578 0.437,-0.5117 1.516,-0.8281 3.391,-1.4961 3.325,-3.0977 -0.012,-0.3359 -0.09,-0.3398 -0.254,-0.3242 -0.942,-0.0156 -2.805,1.3164 -3.227,1.4883 -0.601,0.3281 -1.101,0.4023 -1.597,0.3984 -1.196,0.0899 -2.707,-0.2656 -3.879,-0.0273 -0.274,0.0859 -2.637,1.25 -3.055,0.9883 -0.09,-0.0821 -0.09,-0.1641 0.008,-0.3438 0.41,-0.5 2.527,-1.0703 3.215,-1.1445 1.257,-0.1563 2.527,-0.0664 3.629,-0.3125 1.183,-0.1563 5.421,-2.2305 5,-3.8399 -0.567,-1.9453 -7.379,-4.789 -8.727,-4.8828 -0.512,0 -1.02,-0.0078 -1.606,-0.0078 -1.519,-0.1016 -3.71,-0.7109 -5.222,-0.8828 -1.184,-0.0977 -3.391,0.0508 -3.555,0.9805 -0.098,0.582 0.235,1.6797 0.481,2.1953 0.996,2.375 5.254,8.8164 5.242,9.3242 0.09,1.0937 -0.43,1.6914 0.5,2.2031 1.258,0.6797 1.687,0.3399 2.515,1.2031 0.344,0.254 0.414,0.3399 0.676,0.754 l 4.754,6.289 c 0.156,0.1602 0.402,0.5938 0.5,0.7578 l 0.164,0.4336 c 0.078,0.3438 0.168,0.4258 0.254,0.4141 l 0.156,0.0117 c 0.188,0 0.188,0 0.176,-0.3359 0,-0.1836 0,-0.4258 0.09,-0.586 0.09,-0.1015 0.254,-0.0859 0.352,0 0.324,0.2461 0.5,0.5117 0.585,0.3438 0.165,-0.1758 -0.742,-1.7031 -0.664,-2.1328 0.008,-0.0743 0.164,-0.0703 0.332,0.0195 0.418,0.418 0.75,1.6836 1.258,2.0312 0.422,0.1641 0.93,-0.1718 1.528,-0.0781 0.41,0.086 1.511,0.8594 1.746,1.2852 0.09,0.2539 0.09,0.4219 0,0.5078 -0.254,0.0703 -0.926,-0.5117 -1.336,-0.4414 -0.266,0.0859 -0.434,0.5117 -0.774,0.9375 -0.769,0.7539 -1.179,0.3125 -2.199,0.3984 -0.34,0.0821 -1.016,0.668 -1.199,0.9961 -0.156,0.3399 -0.078,0.7656 0,1.2617 0.254,0.9375 0.832,1.875 1.062,3.0508 0.176,0.4258 -0.808,7.7656 -1.148,9.1133 -0.883,3.5314 -2.539,8.8364 -2.961,9.7544 -1.289,2.613 -5.625,8.156 -8.43,10.5 -0.855,0.667 -3.574,2.246 -4.414,2.585 -0.847,0.239 -1.609,0.493 -2.539,0.637 -1.519,0.414 -9.656,3.399 -10.664,3.977 -3.308,1.836 -7.312,5.676 -11.558,9.441 -0.344,0.352 -0.415,0.344 -0.84,0.496 -4.914,1.653 -8.887,2.563 -10.688,5.324 -1.289,2.024 -2.398,5.727 -3.515,7.317 -1.102,1.508 -4.161,3.773 -6.629,4.5 -1.18,0.336 -2.442,0.492 -3.536,0.906 -0.781,0.246 -1.433,0.664 -2.285,0.836 -0.847,0.145 -1.875,-0.023 -2.793,-0.047 -0.422,0.016 -0.515,0.008 -0.5,-0.164 v -0.164 c -0.007,-0.172 -0.007,-0.172 0.332,-0.25 0.266,-0.082 0.508,-0.094 0.762,-0.164 0.852,0.016 1.524,0.016 2.199,0.016 0.75,-0.071 5.41,-1.383 6.258,-1.805 3.469,-1.664 4.758,-2.914 6.801,-6.449 0.262,-0.426 0.262,-0.426 -0.234,-0.508 l -4.817,-0.281 c -0.422,-0.008 -0.5,-0.008 -0.937,0.238 -0.84,0.336 -1.36,0.582 -1.692,0.996 -0.429,0.594 -0.769,1.609 -1.277,2.188 -1.035,1.003 -2.473,1.074 -1.289,1.937 0.254,0.242 0.508,0.344 0.84,0.332 0.429,-0.156 1.699,-1.07 1.953,-0.906 0.422,0.34 -0.52,0.922 -0.852,1.004 -1.094,0.414 -2.801,0.492 -3.804,0.476 -1.704,-0.008 -13.489,-2.465 -19.211,-3.355 -1.856,-0.278 -3.973,-0.446 -5.579,-0.387 -4.734,0.207 -14.285,2.254 -18.945,4.242 -3.465,1.567 -6.941,3.989 -10.332,5.489 -1.101,0.492 -2.207,0.82 -3.2967,1.242 -0.4336,0.152 -0.5079,0.164 -0.5079,0.41 l -0.0195,0.258 c 0.0195,0.172 0.0859,0.261 0.5078,0.25 1.2653,0.109 4.1363,0.039 4.9883,-0.719 0.598,-0.582 1.289,-1.844 1.711,-1.332 0.398,0.43 -1.633,3.113 -1.898,3.781 -0.172,0.516 -0.262,1.516 -0.184,2.442 -0.012,0.929 0.476,2.89 0.73,3.058 0.254,0.332 0.586,0.414 0.918,0.59 0.434,0.18 0.508,0.176 0.508,0.344 0,0.422 -0.097,0.5 -0.594,0.336 -1.179,-0.438 -3.437,-2.399 -4.187,-3.239 -0.664,-0.933 -1.086,-2.046 -1.9142,-2.722 -1.6796,-1.449 -3.039,-1.207 -4.0351,-2.723 -1.9141,-3.07 -1.2383,-4.922 -4.1016,-4.012 -1.3672,0.414 -3.2226,1.325 -4.414,2.161 -1.7852,1.425 -2.375,1.753 -5.0664,2.16 -0.9375,0.156 -1.7774,0.152 -2.6368,0.312 -0.6718,0.164 -5.4179,2.496 -6.7851,3.321 -2.875,1.839 -5.9258,3.671 -8.3047,5.921 -4.6055,4.446 -7.3359,9.407 -13.0703,9.02 -2.6172,-0.113 -3.5508,-0.957 -4.4492,-3.406 -0.4922,-1.438 -1.1563,-3.141 -1.2305,-4.66 0.0117,-0.5 0.0117,-0.5 0.1719,-0.5 0.082,-0.086 0.2617,-0.086 0.3398,0.007 0.2461,0.16 -0.0078,1.18 0.4961,0.918 0.6797,-0.234 0.2774,-2.347 0.2774,-2.773 -0.0782,-0.598 0.625,-4.133 0.8867,-4.895 0.0937,-0.082 2.7304,-5.125 3.0039,-6.976 0.0078,-0.508 0.0156,-0.852 -0.1641,-1.012 -0.5,-0.594 -2.6015,-1.035 -3.3555,-1.641 -0.9179,-0.671 -1.25,-2.625 -1.0664,-3.89 0.0977,-1.094 0.2774,-2.442 0.7813,-3.11 0.5156,-0.679 1.5234,-1.25 1.6172,-1.847 0.1797,-0.668 -0.3985,-1.606 -0.2344,-1.949 0.0898,-0.165 0.2539,-0.157 0.5898,0.007 0.4219,0.262 1.0118,1.02 1.5977,1.371 0.332,0.176 0.8359,0.247 1.0898,0.172 0.336,-0.086 0.5079,-0.672 0.7657,-0.754 0.3437,-0.082 0.7617,0.602 1.1797,0.68 0.4218,0.094 1.3554,-0.836 1.7929,-1.5 0.8438,-1.336 1.3907,-5.566 1.5742,-6.914 0.1602,-1.344 0.2149,-7.156 0.0547,-7.832 -0.2461,-0.859 -0.3437,-1.027 -1.1679,-0.945 -1.4493,0.242 -7.5235,1.715 -8.711,2.211 -1.707,0.66 -3.8125,1.738 -2.3984,3.355 0.2539,0.258 0.25,0.336 0,0.68 -1.9609,2.586 -2.5703,3.179 -3.0117,4.953 -0.4141,1.766 -0.961,4.883 -1.3047,7.332 -0.0938,0.512 -0.0938,0.512 0.332,0.422 1.5977,-0.41 1.5195,-0.07 2.3477,1.711 0.3281,0.765 0.9062,2.293 0.5625,2.777 -0.1602,0.176 -0.5039,-0.074 -0.8282,-0.59 -0.5156,-1.097 -0.246,-1.695 -1.5117,-2.207 -0.2539,-0.172 -0.5898,-0.254 -0.7617,-0.511 -0.4141,-0.52 -0.1523,-1.774 -0.75,-0.68 -0.4258,0.758 -0.7695,1.847 -0.7773,2.355 -0.1719,1.09 0.8867,5.571 1.3711,8.465 0.6484,3.875 0.2343,12.227 0.2109,15.516 -0.0117,1.445 -0.1172,3.211 -0.3594,3.636 -0.1836,0.333 -0.4297,0.493 -0.5976,0.836 -0.1797,0.426 -0.1993,2.942 -0.0274,3.629 0.1524,0.75 0.4844,1.606 1.2539,2.203 0.4961,0.508 1.0782,0.672 1.668,1.192 0.918,0.769 2.1719,3.055 3.1641,4.082 2.3593,2.379 6.5937,-1.051 10.2421,-2.457 2.625,-0.906 14.8672,-1.067 18.2696,-4.067 0.4219,-0.418 0.7617,-0.839 1.2734,-1.089 0.4219,-0.254 1.0117,-0.329 1.5156,-0.586 0.8477,-0.414 2.3907,-2.672 3.6602,-3.606 0.1641,-0.152 0.7578,-0.492 0.8477,-0.414 0.0742,0.094 0.0859,0.176 -0.0118,0.262 0.0118,0.086 0.0118,0.168 -0.332,0.508 l -3.5742,3.929 c -0.25,0.34 -0.25,0.34 0.1562,0.434 1.1016,0.18 2.6289,-0.152 3.4649,-0.82 0.4414,-0.34 0.6836,-0.664 1.1133,-1.094 0.9375,-0.824 3.1445,-1.91 4.6601,-1.734 0.418,0.011 0.418,0.011 0.418,0.253 v 0.258 c 0,0.25 0,0.25 -0.5156,0.34 -0.75,0.156 -1.5118,0.316 -2.2735,0.645 -1.1914,0.492 -2.2109,1.511 -3.3906,2.175 -1.1914,0.836 -2.7227,1.329 -4.4141,1.731 -0.4257,0.086 -0.4961,0.164 -0.3437,0.594 0.5781,1.683 2.4062,7.105 2.5547,8.714 0.0742,1.52 -0.3711,3.2 -0.2852,4.731 -0.0273,2.184 1.3711,6.254 2.8008,8.117 0.2422,0.332 3.2617,3.656 4.5234,4.176 0.418,0.176 0.9258,0.172 1.4336,0.426 0.8399,0.433 1.6797,1.621 2.5117,2.386 1.5118,1.286 5.0391,2.575 7.1368,3.438 0.4218,0.258 0.5078,0.254 0.5078,0.504 v 0.179 c 0,0.247 0,0.247 -0.5078,0.153 -0.6641,-0.16 -1.336,-0.254 -2.0196,-0.516 -0.5,-0.262 -1.0078,-0.519 -1.5039,-0.769 -1.5273,-0.606 -1.7695,-0.356 -3.3711,-1.543 -1.1054,-0.86 -2.0117,-2.055 -3.0976,-2.735 -1.0899,-0.683 -2.3633,-0.777 -3.4531,-1.465 -2.1133,-1.281 -4.6836,-5.863 -5.5079,-8.398 -0.3281,-1.012 -0.8125,-3.473 -0.7265,-4.312 0.0117,-1.524 0.4453,-3.188 0.2187,-4.465 -0.0937,-0.758 -0.5078,-1.606 -0.9258,-2.453 -0.3242,-0.606 -0.664,-1.114 -0.914,-1.789 -0.4141,-0.93 -0.7305,-3.125 -1.0586,-4.723 -0.0742,-0.438 -0.1602,-0.434 -0.582,-0.262 -1.2813,0.488 -3.2188,1.567 -3.3907,1.738 -0.6875,0.844 -0.5351,4.727 -0.2226,6.247 0.8906,3.808 2.1601,4.238 2.2187,7.523 -0.0156,2.109 -0.7148,4.727 -0.5547,6.754 0.0625,3.043 1.4688,6.262 3.6485,8.383 0.1679,0.175 0.4062,0.433 0.75,0.433 0.082,0 0.082,0 -0.0899,-0.422 -0.3984,-1.265 -0.8984,-2.718 -1.1367,-3.898 -0.0898,-0.758 -0.3906,-3.973 -0.0469,-4.559 0.0899,-0.164 0.3399,-0.328 0.4219,-0.578 0.168,-0.34 0.0078,-1.019 0.0938,-1.269 0.082,-0.16 0.2539,-0.168 0.4218,-0.082 0.418,0.347 0.4961,1.429 0.3243,2.363 -0.2618,2.027 -0.6954,2.449 0.0507,4.559 0.7383,2.043 2.4063,4.23 3.0704,6.183 0.5703,1.953 0.6445,4.488 1.125,6.524 0.5742,2.441 2.4882,5.828 4.3242,7.789 0.8515,0.847 1.8476,1.617 2.6953,2.464 0.664,0.688 3.8398,5.352 4.414,6.547 1.5821,2.868 2.7344,5.918 2.1211,9.637 -0.1875,1.098 -0.3554,1.602 0.2344,1.762 0.4258,0.183 1.1797,0.277 1.4453,0.101 0.1446,-0.078 0.1641,-0.25 0.3321,-0.507 0.25,-0.321 0.9375,-0.825 1.2773,-0.829 0.1563,0.008 0.2539,0.09 0.4102,0.258 0.6757,0.766 1.9336,2.465 2.3558,2.133 0.593,-0.496 -2.2699,-2.648 -2.766,-3.484 -0.0781,-0.254 -0.1562,-0.52 0.0117,-0.586 0.5938,-0.504 3.4333,3.226 3.5113,3.39 0.415,0.692 0.579,1.266 0.997,1.871 0.761,1.012 2.609,1.961 3.527,2.981 0.332,0.336 0.742,1.453 0.996,2.371 0.32,1.355 1.023,7.867 0.937,8.031 -0.167,0.157 -0.488,0.164 -0.917,-0.429 -0.168,-0.258 -0.168,-0.332 -0.247,-0.754 -0.886,-5.672 -0.711,-7.532 -3.718,-10 -1.758,-1.457 -3.9535,-2.145 -6.4847,-1.989 -0.5078,0.079 -1.0156,0.164 -1.5235,0.317 -1.7656,0.578 -2.2851,1.328 -3.9648,0.726 -0.9375,-0.257 -1.8555,-0.929 -2.8594,-1.289 -0.5898,-0.25 -1.2617,-0.429 -1.9453,-0.515 -0.4297,-0.082 -0.5078,-0.094 -1.0156,-0.09 l -3.1953,0.144 c -0.4375,0 -0.5235,0.075 -0.4375,0.422 0,0.406 -0.0781,0.844 -0.2617,1.172 -0.168,0.254 -0.168,0.254 -0.4219,0.246 h -0.25 c -0.25,0.004 -0.25,0.004 -0.168,-0.414 0.3477,-1.609 -0.5664,-1.789 -2.168,-2.976 -0.8476,-0.598 -1.5117,-1.372 -1.5937,-1.957 -0.0781,-0.497 0.1758,-1.004 0.0977,-1.524 -0.086,-0.242 -1.418,-1.617 -1.7579,-1.781 -0.582,-0.164 -1.8554,-0.094 -2.0351,0.668 -0.168,0.742 0.668,1.851 -0.5039,1.34 -0.6875,-0.344 -1.3516,-1.188 -2.1875,-1.618 -0.418,-0.257 -1.6836,-0.531 -2.0196,-0.453 -0.3554,0.09 -0.6015,0.254 -0.8437,0.34 -0.2656,0.254 -0.2656,0.254 0.1602,0.348 2.1093,0.262 2.957,0.519 4.0273,1.883 1.0156,1.269 2.4297,3.398 2.8516,3.652 0.7617,0.426 1.9375,0.434 1.5039,1.367 -0.4297,1.082 -2.375,0.992 -3.6328,0.805 -0.6836,-0.086 -1.9297,-0.602 -2.3594,-1.031 -0.7539,-0.582 -1.4219,-1.36 -2.0938,-1.946 -1.25,-1.035 -3.2773,-1.812 -4.6406,-1.398 -0.6719,0.246 -1.3477,0.742 -1.9336,0.738 -0.5117,0.004 -0.9258,-0.332 -1.3437,-0.258 -0.4336,0.078 -1.1993,0.914 -1.4571,1.52 -0.3398,0.75 -0.5117,2.43 -0.3515,2.859 0.1601,0.5 0.75,0.934 1.082,1.438 0.1719,0.336 0.1562,1.699 -0.0195,2.113 -0.6836,1.77 -1.1993,2.18 -0.7891,3.957 0.1563,0.594 0.3281,1.012 0.5742,1.527 0.336,0.508 2.9375,3.071 3.3555,3.235 2.2656,0.949 3.6211,0.445 4.5351,1.804 0.3438,0.434 0.5899,0.95 0.8399,1.438 1.3437,1.875 5.0391,3.68 6.7148,4.535 0.7578,0.336 2.9414,2.051 3.1055,2.387 0.4141,0.848 -0.0156,1.68 0.4102,2.453 0.1562,0.25 1.8359,1.191 2.2656,1.285 0.75,0.09 1.4258,-0.156 2.1875,0.02 0.9258,0.172 5.7148,3.41 6.8164,3.679 1.0039,0.262 1.3476,-0.246 2.8711,-0.738 0.9258,-0.316 2.4531,-0.578 2.9609,0.191 0.0781,0.165 0.0664,0.512 -0.0117,0.606 -0.1641,0.152 -0.7617,-0.02 -1.2695,-0.031 -0.3321,0.011 -2.5391,0.84 -2.8828,1.172 -1.6954,1.671 -1.7071,2.851 -3.9727,2.328 -0.5078,-0.09 -0.8477,-0.258 -1.1797,-0.684 -0.7539,-0.766 -1.3398,-1.625 -1.6797,-0.687 -0.2656,0.578 0.3203,1.945 0.6446,2.531 0.1562,0.43 0.4101,0.598 0.6718,0.851 0.4219,0.262 2.6953,0.954 3.2813,0.957 0.3437,0.008 4.1523,-0.808 4.7344,-1.48 0.8515,-0.844 0.957,-1.77 1.5234,-1.594 0.6953,0.258 0.168,0.766 0.168,1.602 0.0078,0.512 0.6562,1.863 0.9101,2.211 0.418,0.668 0.9258,1.101 1.4336,1.015 0.1563,0 0.1758,-0.074 0.1758,-0.414 -0.0781,-0.929 0.5195,-2.445 0.6953,-2.699 0.3399,-0.422 1.0156,-0.758 1.6172,-1.086 0.3359,-0.254 0.4219,-0.332 0.3359,-0.758 -0.6562,-2.699 -0.8906,-4.816 0.2225,-7.422 0.254,-0.418 0.52,-0.832 0.852,-1.003 0.176,-0.079 0.426,-0.086 0.515,0 0.079,0.164 -0.089,0.589 -0.175,0.918 -0.43,0.941 -0.938,1.519 -1.121,2.355 -0.09,0.434 1.289,8.203 1.687,9.469 0.422,1.093 1.492,4.234 3.191,4.078 0.161,0.004 0.161,-0.078 0.168,-0.496 -0.007,-0.762 -0.078,-1.442 0.02,-2.199 0.184,-1.602 3.535,-10.7 3.633,-12.125 0.183,-1.606 -0.149,-2.954 -1.067,-3.969 -0.507,-0.434 -1.172,-0.863 -1.59,-0.946 -0.593,0.004 -1.433,0.321 -1.257,-0.437 0.172,-0.496 2.183,-0.652 2.937,-0.227 0.418,0.172 0.695,0.512 1.016,0.692 0.254,0.09 0.508,0.164 0.594,-0.012 0.089,-0.16 -0.758,-0.937 -0.997,-1.683 -0.164,-0.516 -0.171,-0.938 0,-1.102 0.176,-0.168 0.508,0.004 1.016,0.594 0.246,0.347 0.344,0.347 0.5,-0.078 0.781,-1.258 1.465,-2.598 1.301,-3.7 -0.063,-1.347 -0.91,-3.3 -0.051,-2.871 0.75,0.434 0.899,3.125 0.637,3.973 -0.449,1.598 -1.711,2.945 -0.531,2.703 0.335,-0.078 1.359,-1.008 1.515,-1.434 0.098,-0.003 1.32,-4.882 0.985,-5.82 -0.165,-0.676 -1.336,-1.863 -0.899,-2.367 0.422,-0.504 1.328,1.191 1.496,1.797 0.242,1.172 -0.105,3.203 -0.539,4.801 -0.176,0.421 -0.098,0.421 0.246,0.156 1.961,-1.656 2.813,-4.27 3.594,-6.543 0.437,-1.09 1.66,-7.246 1.602,-7.672 -0.594,-2.367 -1.348,-3.137 -0.411,-3.043 0.157,0.008 0.164,0.09 0.332,0.516 0.821,2.879 0.977,3.461 0.125,5.398 -0.347,0.852 -1.738,6.656 -1.57,6.746 0.41,0.336 1.359,-0.5 1.609,-1.512 0.43,-1.347 1.04,-3.789 1.301,-4.039 0.078,-0.086 0.266,-0.253 0.332,-0.164 0.086,0.082 0.086,0.243 0.02,0.414 -0.11,0.586 -0.363,1.094 -0.457,1.598 0,0.434 0,0.859 0.008,1.191 -0.008,0.5 0.07,0.512 0.254,0.086 0.671,-1.593 1.445,-3.203 2.05,-4.718 0.696,-1.594 2.942,-9.426 3.211,-10.774 0.703,-4.383 0.93,-11.293 0.617,-15.605 0.02,-0.934 -1.535,-7.442 -1.953,-8.293 -1.23,-2.961 -2.722,-6.856 -2.558,-6.946 0.078,0.008 0.175,0.012 0.254,0.008 0.078,0.004 0.175,0.09 0.332,0.422 l 2.004,4.242 c 0.164,0.422 0.242,0.43 0.25,0.172 -0.008,-0.172 0,-0.344 -0.008,-0.511 -0.313,-1.864 -2.727,-7.2 -2.461,-7.278 0,0 0.078,0 0.156,0.004 0.176,-0.004 0.176,0.078 0.344,0.414 1.414,2.801 3.711,10.426 3.711,11.262 0.066,0.594 -0.012,1.094 -0.024,1.683 0.071,1.946 0.813,4.325 1.125,6.68 0.078,0.93 -0.422,9.961 -0.683,11.481 -0.254,1.687 -0.52,3.281 -0.965,5.046 -0.344,1.692 -2.512,8.426 -2.942,9.27 -0.253,0.418 -0.515,0.754 -0.671,1.176 -0.52,1 -0.872,2.019 -1.301,3.117 -0.43,0.84 -4.785,7.227 -6.824,9.906 -0.598,0.832 -1.536,1.836 -2.043,2.172 -1.789,0.914 -2.207,0.828 -2.239,3.535 0,0.41 0,0.41 0.442,0.25 0.5,-0.238 1.179,-0.586 1.679,-0.664 1.016,-0.152 1.856,0.363 2.957,0.278 0.676,0 4.219,-1.067 4.915,-1.649 0.671,-0.676 0.683,-1.687 0.515,-1.855 -0.254,-0.254 -1.941,-0.52 -2.613,-0.52 -0.512,0.07 -1.02,0.156 -1.692,0.488 -0.605,0.254 -1.179,0.582 -1.269,0.504 -0.176,-0.261 0.176,-0.601 0.422,-0.761 0.601,-0.414 2.027,-0.914 2.539,-0.903 0.515,-0.004 0.762,0.082 1.187,0.176 2.192,0.273 5.493,-1.57 6.02,-3.34 0.086,-0.41 0.176,-1.836 -0.656,-2.539 -0.188,-0.078 -0.188,-0.078 -0.52,0.246 -1.101,1.106 -1.355,1.344 -2.117,1.504 -0.164,0 -0.242,0.094 -0.332,0.012 -0.418,-0.266 0.676,-0.84 0.848,-1.004 0.839,-0.504 1.281,-1.766 1.964,-2.434 0.332,-0.347 1.106,-0.668 1.692,-0.832 1.851,-0.336 2.625,0.016 4.402,-1.578 0.254,-0.238 0.852,-0.922 0.86,-1.512 -0.008,-0.168 -0.098,-0.164 -0.508,0.094 -0.254,0.074 -0.594,0.156 -0.938,0.235 -0.762,0.078 -1.601,-0.094 -2.441,0.062 -1.004,0.172 -2.196,0.824 -2.449,0.656 -0.098,-0.086 -0.09,-0.156 -0.024,-0.332 0.188,-0.246 1.633,-0.914 2.043,-0.914 1.27,-0.066 1.426,0.606 3.059,-0.316 0.593,-0.414 3.14,-2.84 2.554,-3.434 -0.086,-0.082 -0.261,-0.094 -0.504,-0.008 -0.941,0.164 -2.453,1.161 -3.734,1.411 -0.75,0.156 -1.433,0.07 -2.195,0.32 -0.332,0.086 -1.192,0.57 -1.348,0.484 -0.09,-0.082 -0.09,-0.242 -0.012,-0.332 0.079,-0.25 0.95,-0.75 1.457,-0.832 0.586,-0.16 1.094,0.012 1.68,-0.082 1.106,-0.144 3.477,-1.64 3.985,-2.406 0.273,-0.332 0.773,-1.426 0.703,-2.27 0,-0.343 -0.086,-0.343 -0.508,-0.343 l -1.184,-0.004 c -0.429,-0.016 -0.508,-0.008 -0.926,0.16 -0.246,0.164 -0.515,0.328 -0.761,0.484 0,0 -2.305,2.106 -2.547,1.676 -0.09,-0.078 -0.102,-0.164 0,-0.246 -0.012,-0.082 -0.012,-0.082 0.34,-0.422 0.925,-0.754 1.789,-1.672 2.715,-2.176 1.347,-0.75 2.878,-0.898 4.152,-1.484 1.266,-0.656 2.558,-2.254 3.152,-3.774 0.078,-0.171 0.164,-0.425 0.098,-0.507 -0.098,-0.168 -0.43,-0.086 -0.692,-0.008 -0.5,0.176 -1.015,0.582 -1.593,0.75 -0.86,0.25 -1.867,-0.094 -2.625,0.234 -0.774,0.328 -1.36,1.34 -2.032,1.676 -0.175,0.078 -0.363,0.164 -0.429,0.074 -0.246,-0.164 0.34,-0.836 0.769,-1.172 0.594,-0.593 1.438,-1.175 2.118,-1.414 0.675,-0.242 1.515,-0.156 2.199,-0.504 1.191,-0.406 3.047,-2.41 3.32,-3.007 0.254,-0.418 0.789,-3.969 0.715,-4.465 -0.18,-0.852 -0.422,-1.438 -0.918,-2.192 -0.258,-0.441 -0.434,-0.519 -1.008,-0.347 -0.254,0.07 -0.344,0.16 -0.351,0.496 v 0.586 c 0.007,0.261 0.007,0.261 0.078,0.265 0.09,0 0.097,0.082 0.168,0.496 0.41,1.618 0.066,2.454 -0.793,3.883 -0.352,0.586 -0.762,1.098 -1.192,1.344 -0.926,0.406 -2.695,0.492 -3.554,0.98 -0.84,0.59 -1.536,1.598 -1.778,1.516 -0.078,-0.012 -0.078,-0.254 0,-0.586 0.176,-0.43 0.86,-1.109 1.446,-1.437 1.113,-0.664 2.539,-0.731 3.386,-1.411 0.422,-0.332 1.449,-2.093 1.543,-2.601 0.09,-0.684 -0.078,-1.359 -0.574,-2.793 -0.156,-0.422 -0.234,-0.426 -0.664,-0.254 -0.762,0.32 -1.785,0.906 -2.129,1.332 -0.508,0.578 -1.191,2.266 -1.523,1.84 -0.508,-0.496 0.949,-2.266 1.367,-2.68 1.621,-1.515 2.285,-1.418 4.226,-2.078 1.282,-0.414 1.789,-1.164 2.993,-2.937 0.847,-1.168 0.933,-1.602 1.121,-3.696 0.175,-2.535 0.105,-2.789 -1.219,-4.996 -0.5,-0.762 -0.676,-1.019 -1.176,-0.941 -0.183,0 -0.183,0 -0.008,0.418 1.25,3.058 1.668,3.476 0.801,5.754 -0.781,1.851 -1.555,3.031 -3.32,3.769 -0.52,0.246 -1.106,0.41 -1.27,0.242 -0.422,-0.339 1.016,-0.918 1.614,-1.339 0.835,-0.579 2.734,-3.934 2.402,-4.622 -0.332,-0.585 -0.852,0.168 -1.438,0.754 -0.351,0.422 -0.847,0.657 -1.355,0.832 -1.445,0.489 -2.121,0.149 -2.895,1.832 0,0.09 -0.945,3.368 -1.543,2.688 -0.332,-0.34 1.204,-3.281 1.289,-3.445 0.344,-0.422 0.61,-0.758 1.028,-1.016 1.863,-1.156 3.476,-1.152 3.664,-3.086 0.074,-0.586 -0.254,-1.523 -0.664,-1.691 -0.676,-0.254 -2.871,0.566 -2.961,0.644 -0.781,0.422 -1.973,2.18 -2.402,3.445 -0.086,0.508 -0.168,0.504 -0.254,0.504 -0.34,0.082 -0.411,-0.093 -0.254,-0.757 0.437,-1.606 1.633,-3.372 2.91,-4.028 0.683,-0.422 1.531,-0.578 2.285,-0.914 3.215,-1.504 4.52,-5.703 3.359,-8.922 -0.254,-0.644 -0.515,-1.117 -0.632,-1.531 l -0.969,-1.207"
         style="fill:#ffffff;fill-opacity:1;fill-rule:evenodd;stroke:none"
         id="path900" /><path
         d="m 119.734,241.781 c -0.086,-0.082 -0.066,-0.254 0.024,-0.414 0.066,-0.176 0.332,-0.172 0.496,0.004 0.488,0.43 1.902,3.895 1.992,4.406 0.078,0.418 0.078,0.844 -0.012,0.934 -0.523,0.75 -1.004,-2.301 -1.824,-3.727 -0.246,-0.429 -0.5,-0.867 -0.676,-1.203"
         style="fill:#161616;fill-opacity:1;fill-rule:evenodd;stroke:none"
         id="path902" /><path
         d="m 102.996,246.805 c -2.43,-2.563 -4.4296,-4.68 -7.1952,-7.739 -0.586,-0.675 -1.2695,-1.355 -1.0938,-1.449 0.0782,-0.004 0.1641,0.09 0.2461,0.09 0.1055,0 0.0782,0.09 0.4297,0.422 2.7539,2.812 8.0352,8.082 8.2032,8.598 0.254,0.328 0.164,0.503 -0.18,0.414 -0.086,0.004 -0.086,0.004 -0.41,-0.336"
         style="fill:#161616;fill-opacity:1;fill-rule:evenodd;stroke:none"
         id="path904" /><path
         d="m 98.0273,243.809 c 1.6915,1.953 4.6997,5.285 4.9337,5.867 0.34,0.508 0.254,0.676 -0.168,0.59 -0.176,0 -0.242,-0.086 -0.508,-0.422 -0.754,-1.114 -1.484,-2.211 -2.4998,-3.321 -0.8399,-0.839 -1.9141,-1.781 -2.3321,-2.632 -0.2656,-0.414 -0.1758,-0.508 0.1524,-0.422 0.1015,0.004 0.1015,0.004 0.4218,0.34"
         style="fill:#161616;fill-opacity:1;fill-rule:evenodd;stroke:none"
         id="path906" /><path
         d="m 63.3672,249.953 c -0.0781,-0.008 -0.0781,-0.254 0.0117,-0.422 0.3399,-0.508 2.7813,0.606 3.2891,0.946 0.4218,0.253 1.6758,1.191 1.3281,1.617 -0.2461,0.344 -0.9883,-0.68 -1.4141,-1.02 -0.3476,-0.254 -0.7578,-0.426 -1.1757,-0.601 -0.6797,-0.172 -1.5196,-0.258 -2.0391,-0.52"
         style="fill:#161616;fill-opacity:1;fill-rule:evenodd;stroke:none"
         id="path908" /><path
         d="m 120.918,253.199 -0.176,-0.015 c -0.078,0.004 -0.078,0.004 -0.09,-0.079 l 0.024,-0.078 c -0.012,-0.086 -0.012,-0.086 -0.09,-0.093 -0.078,0.007 -0.09,-0.079 -0.09,-0.512 0.012,-0.504 0.102,-1.012 -0.074,-1.512 -0.156,-0.508 -1.067,-2.039 -0.91,-2.195 0.437,-0.43 1.008,0.422 1.191,0.926 0.41,0.847 0.481,1.875 0.383,3.054 0,0.41 0.008,0.493 -0.168,0.504"
         style="fill:#161616;fill-opacity:1;fill-rule:evenodd;stroke:none"
         id="path910" /><path
         d="m 88.3477,262.051 -0.2422,0.004 c -0.1758,-0.012 -0.1758,-0.012 -0.1758,-0.258 v -0.59 c 0.0117,-0.344 0,-0.43 0.0976,-0.594 0.0079,-0.168 0.086,-0.343 0.254,-0.418 1.4531,-2.277 2.8125,-3.101 1.7382,-4.882 -0.7617,-1.278 -1.6992,-1.54 -3.789,-2.403 -0.4219,-0.172 -0.5078,-0.254 -0.5078,-0.41 0.0078,-0.098 0,-0.184 0.0078,-0.258 0.3437,-0.758 3.4492,0.863 3.6172,0.946 1.2578,0.781 1.9336,1.636 2,3.066 0.0781,0.586 -0.2735,2.105 -0.5157,2.437 -0.5195,0.754 -1.457,1.172 -1.875,2.016 -0.1757,0.246 -0.2656,0.582 -0.3554,0.93 -0.086,0.41 -0.086,0.41 -0.2539,0.414"
         style="fill:#161616;fill-opacity:1;fill-rule:evenodd;stroke:none"
         id="path912" /><path
         d="m 103.469,262.336 h -0.278 c -0.156,0 -0.253,0.004 -0.144,-0.504 0.254,-1.094 0.183,-2.281 -0.149,-2.875 -0.496,-1.102 -1.929,-2.629 -1.843,-2.977 0.008,-0.07 0.175,-0.07 0.351,0.004 0.75,0.442 2.5,3.485 2.578,4.004 0.079,0.582 -0.105,1.258 -0.195,1.848 -0.078,0.5 -0.156,0.504 -0.32,0.5"
         style="fill:#161616;fill-opacity:1;fill-rule:evenodd;stroke:none"
         id="path914" /><path
         d="m 101.941,262.32 -0.171,0.016 c -0.176,-0.016 -0.176,-0.016 -0.161,-0.438 0.012,-1.175 -1.082,-3.043 -1.7457,-3.816 -0.586,-0.594 -0.9297,-0.758 -1.1719,-1.43 -0.0898,-0.261 -0.0898,-0.261 0.1758,-0.254 0.168,-0.007 0.168,0.079 0.5078,0.34 1.836,1.953 2.5,2.805 2.734,4.66 0.086,0.262 0.086,0.418 0.079,0.676 -0.086,0.25 -0.086,0.25 -0.247,0.246"
         style="fill:#161616;fill-opacity:1;fill-rule:evenodd;stroke:none"
         id="path916" /><path
         d="m 60.6836,259.551 c -0.0781,-0.258 0.0039,-0.754 0.1016,-0.93 0.0703,-0.078 0.2421,-0.086 0.3164,0.008 0.3476,0.25 0.5039,0.844 0.7617,1.016 0.4258,0.179 1.1914,-0.329 1.7851,-0.329 0.5899,0.094 1.4219,1.032 1.5821,1.704 0.164,0.851 -0.0157,1.769 0.8398,1.441 0.9219,-0.41 0.1836,-1.938 -0.4922,-2.449 -1.3515,-1.024 -2.6914,-1.114 -3.6133,-2.895 -0.0781,-0.336 -0.1601,-0.59 0.0157,-0.762 0.0859,-0.085 4.1054,3.067 4.6054,3.758 0.7579,0.848 1.0782,1.938 0.3243,2.95 -0.6055,0.757 -1.4414,0.667 -2.4571,0.32 -0.414,-0.168 -0.7578,-0.34 -1.0039,-0.606 -0.4219,-0.347 -0.6679,-0.929 -1.0976,-1.359 -0.9219,-0.758 -1.5782,-0.688 -1.668,-1.867"
         style="fill:#161616;fill-opacity:1;fill-rule:evenodd;stroke:none"
         id="path918" /><path
         d="m 116.277,263.797 -0.183,2.183 c -0.086,0.348 -0.098,0.422 -0.266,0.422 h -0.23 c -0.278,0 -0.278,-0.093 -0.176,-0.347 0.074,-0.25 0.066,-0.492 0.086,-0.754 0.09,-1.184 0.273,-2.528 0.105,-3.207 -0.332,-1.18 -1.258,-2.285 -1.074,-2.797 0.09,-0.164 0.258,-0.16 0.5,-0.074 0.598,0.257 1.16,2.043 1.238,3.554 0.09,0.426 0.078,0.504 0,1.02"
         style="fill:#161616;fill-opacity:1;fill-rule:evenodd;stroke:none"
         id="path920" /><path
         d="m 64.5938,256.297 c -0.0821,-0.34 0.0898,-0.434 0.3359,-0.348 2.1953,0.867 5.0391,3.25 5.1133,5.199 0.0703,0.84 -0.4336,1.934 -0.2657,2.7 0.2422,1.015 3.9258,3.91 5.4454,4.601 0.4179,0.172 0.832,0.344 1.0039,0.516 0.2461,0.172 0.332,0.758 0.1562,0.84 -0.1562,0.082 -3.0976,-1.633 -4.1015,-2.481 -1.4336,-1.195 -3.1954,-2.469 -3.3594,-3.91 -0.0742,-0.41 0.0117,-1.008 0.0117,-1.519 -0.0547,-2.364 -1.2383,-3.207 -3.25,-4.321 -0.6719,-0.429 -0.9219,-0.699 -1.0898,-1.277"
         style="fill:#161616;fill-opacity:1;fill-rule:evenodd;stroke:none"
         id="path922" /><path
         d="m 87.6953,270.492 c -0.0117,0.078 -0.0781,-0.008 -0.0781,-0.008 -0.0977,0.082 -0.0977,0.082 -0.0977,0.082 0.0118,0.09 -0.1679,0.094 -0.2422,0.075 -0.3437,-0.078 -0.5078,-0.254 -0.7617,-0.34 -0.4218,-0.16 -1.2617,-0.246 -1.5273,-0.094 -0.418,0.168 -0.7617,0.59 -1.1016,0.672 -0.332,0.078 -0.332,0.004 -0.2422,-0.43 0.3477,-1.172 2.6172,-0.992 3.5547,-0.73 0.3203,0.168 0.6719,0.422 0.4961,0.773"
         style="fill:#161616;fill-opacity:1;fill-rule:evenodd;stroke:none"
         id="path924" /><path
         d="m 98.7891,275.219 h -0.168 c -0.0781,0 -0.0781,0 -0.0781,0 l -0.0078,-0.082 c 0,0 0.0195,-0.008 -0.0664,-0.008 -0.0899,0.004 -0.0899,-0.082 -0.0782,-0.34 0,-0.68 -0.5,-1.777 -0.7617,-2.117 -0.1562,-0.16 -1.9141,-1.535 -1.5859,-1.949 0.3554,-0.422 1.7695,1.031 2.0234,1.273 0.1563,0.262 0.9961,2.113 0.9961,2.707 -0.0195,0.098 0,0.27 -0.0977,0.344 0,0.172 0,0.172 -0.1757,0.172"
         style="fill:#161616;fill-opacity:1;fill-rule:evenodd;stroke:none"
         id="path926" /><path
         d="m 81.3477,271.621 c -0.0782,-0.094 -0.0782,-0.426 0.0078,-0.59 0.1679,-0.25 1.2734,0.336 1.4375,0.512 0.664,0.598 0.9961,1.789 1.6601,2.285 0.418,0.258 1.1719,0.352 1.4453,-0.14 0,-0.188 0.0118,-0.262 0,-0.43 -0.4218,-0.852 -1.3476,-0.934 -1.164,-1.445 0.4219,-0.758 1.3594,-0.754 2.0234,-0.407 0.418,0.258 0.6719,0.684 0.918,0.684 0.2656,0 0.6836,-0.422 1.1914,-0.84 1.0273,-0.746 2.043,-0.984 2.9609,-0.312 0.2539,0.171 0.4063,0.511 0.2539,0.761 -0.1757,0.164 -0.8437,-0.094 -1.3593,-0.172 -0.4219,-0.011 -1.0938,0.235 -1.3477,0.489 -0.6055,0.664 -0.9492,1.847 -1.6211,2.437 -0.5273,0.508 -1.9648,0.918 -2.625,0.82 -1.5156,-0.171 -2.7773,-2.125 -3.7812,-3.652"
         style="fill:#161616;fill-opacity:1;fill-rule:evenodd;stroke:none"
         id="path928" /><path
         d="m 93.5859,271.879 c 0.0079,-0.074 0.0938,-0.336 0.1758,-0.508 0.5156,-0.586 2.3594,0.953 2.6055,1.301 0,0.082 1.2305,3.875 0.8984,4.226 -0.1679,0.157 -0.332,-0.019 -0.4961,-0.261 -0.5976,-0.77 -0.7422,-2.282 -1.164,-3.125 -0.2539,-0.516 -0.586,-0.778 -1.1836,-1.114 -0.3281,-0.175 -0.6719,-0.343 -0.836,-0.519"
         style="fill:#161616;fill-opacity:1;fill-rule:evenodd;stroke:none"
         id="path930" /><path
         d="m 82.1758,274.156 c 0.7539,1.352 0.832,1.606 2.1875,1.957 2.2695,0.61 3.6133,0.953 5.3945,-0.043 0.8477,-0.414 1.4453,-1 1.6211,-1.847 0,-0.34 0.0859,-0.321 0.1641,-0.41 0.1758,-0.008 0.2617,-0.09 0.3437,0 0.1719,0.093 0.2539,0.675 0.1641,1.089 -0.2656,1.192 -2.5586,2.18 -3.75,2.34 -0.5781,0.164 -1.1602,0.164 -1.6797,-0.015 -0.4102,-0.082 -0.7539,-0.254 -1.1797,-0.434 -0.5,-0.168 -1.0859,-0.176 -1.6797,-0.352 -1.2617,-0.347 -1.8476,-1.097 -2.2578,-2.375 -0.0781,-0.336 0,-0.421 0.3438,-0.336 0.0742,0.004 0.164,0.004 0.3281,0.426"
         style="fill:#161616;fill-opacity:1;fill-rule:evenodd;stroke:none"
         id="path932" /><path
         d="m 87.9297,284.074 c -0.6719,-0.344 -1.9453,-1.023 -2.2852,-0.781 -0.4297,0.34 -0.0898,0.937 0.3321,1.441 0.332,0.262 0.664,0.344 1.5234,0.102 0.1563,-0.086 0.6719,-0.332 0.5078,-0.582 0,-0.09 -0.0781,-0.094 -0.0781,-0.18"
         style="fill:#ffffff;fill-opacity:1;fill-rule:evenodd;stroke:none"
         id="path934" /><path
         d="m 103.906,279.48 -0.176,1.594 c -0.097,0.508 -0.007,0.508 0.157,0.594 0.515,-0.004 0.683,-0.074 0.847,-0.328 0.786,-1.172 0.278,-1.512 -0.386,-2.789 -0.078,-0.336 -0.246,-0.758 -0.078,-0.852 0.164,-0.16 0.574,0.008 0.847,0.098 1.25,0.851 1.328,2.121 0.891,3.301 -0.512,1.25 -1.535,2.941 -1.723,4.203 -0.074,0.336 -0.183,3.199 -0.125,3.801 0,0.425 0,0.425 -0.234,0.082 -0.332,-0.508 -0.496,-1.27 -0.586,-1.782 -0.07,-1.004 0.265,-2.187 0.027,-3.203 -0.164,-0.679 -0.586,-1.179 -0.738,-1.859 -0.332,-1.012 -0.324,-2.461 0.359,-3.121 0.254,-0.262 0.508,-0.336 0.852,-0.332 0.074,0.093 0.164,0.09 0.066,0.593"
         style="fill:#161616;fill-opacity:1;fill-rule:evenodd;stroke:none"
         id="path936" /><path
         d="m 94.9531,292.23 c 0.086,-1.187 0.0078,-1.339 -0.7422,-2.531 -0.414,-0.679 -1.4257,-0.441 -1.8671,0.492 -0.5079,1.094 0.996,3.289 1.75,3.731 1.0039,0.59 0.8359,-0.512 0.8593,-1.692"
         style="fill:#ffffff;fill-opacity:1;fill-rule:evenodd;stroke:none"
         id="path938" /><path
         d="m 62.1484,192.797 0.0743,0.008 c 0.0859,-0.008 0.0859,-0.008 0.0859,-0.008 0.0078,-0.258 0.0859,-0.246 0.5156,-0.164 0.4141,0.176 1.6797,1.035 1.8438,1.453 0.0781,0.168 0.082,0.34 -0.0117,0.418 -0.1758,0.176 -2.0157,-0.953 -2.3516,-1.113 -0.2539,-0.172 -0.332,-0.184 -0.2383,-0.504 -0.0078,-0.09 -0.0078,-0.09 0.082,-0.09"
         style="fill:#161616;fill-opacity:1;fill-rule:evenodd;stroke:none"
         id="path940" /><path
         d="m 63.3359,191.871 v -0.246 c 0,-0.16 0.0039,-0.258 0.2618,-0.246 1.3437,-0.152 3.6054,1.719 4.1093,2.562 0.1641,0.247 0.3399,0.594 0.2461,0.762 -0.3476,0.496 -1.5976,-1.187 -2.0976,-1.621 -0.586,-0.352 -1.3516,-0.519 -2.1055,-0.769 -0.418,-0.102 -0.4258,-0.184 -0.4141,-0.442"
         style="fill:#161616;fill-opacity:1;fill-rule:evenodd;stroke:none"
         id="path942" /><path
         d="m 69.1367,194.281 c -0.164,-0.25 -0.3242,-0.926 -0.2383,-1.179 0.168,-0.254 0.5,0.168 0.75,0.433 0.5039,0.688 0.8399,1.442 0.668,1.695 -0.1797,0.243 -0.8476,-0.097 -1.1797,-0.949"
         style="fill:#161616;fill-opacity:1;fill-rule:evenodd;stroke:none"
         id="path944" /><path
         d="m 138.672,196.781 c -0.012,0.254 -0.012,0.254 -0.176,0.254 l -0.344,-0.004 c -0.156,-0.004 -0.156,-0.004 -0.156,-0.25 v -0.34 c 0,-0.171 0,-0.25 0,-0.25 l 0.09,-0.003 -0.012,-0.172 c 0.012,-0.075 0.102,-0.078 0.18,-0.082 l 0.262,0.007 c 0.156,0 0.156,0 0.168,0.25 l -0.012,0.59"
         style="fill:#161616;fill-opacity:1;fill-rule:evenodd;stroke:none"
         id="path946" /><path
         d="m 134.719,195.738 c 1.265,-0.07 0.398,2.617 -0.031,3.379 -0.176,0.422 -0.176,0.422 -0.34,0.422 l -0.102,-0.008 c -0.066,-0.011 -0.066,-0.011 -0.066,-0.414 l 0.359,-2.879 c 0.078,-0.422 0.09,-0.496 0.18,-0.5"
         style="fill:#161616;fill-opacity:1;fill-rule:evenodd;stroke:none"
         id="path948" /><path
         d="m 82.3164,192.617 0.1719,-0.004 c 0.082,-0.07 0.168,0.016 0.3437,0.434 0.5664,1.863 1.1524,3.137 2.7461,4.148 1.3438,0.953 1.5977,0.778 2.0977,1.965 -0.0117,0.176 0.0781,0.254 0.0781,0.344 -0.0898,0.082 -0.2539,-0.012 -0.3437,-0.008 -1.1719,-0.348 -3.4375,-2.812 -3.9336,-3.578 -0.3321,-0.426 -1.1719,-2.117 -1.3282,-3.043 v -0.086 c 0,-0.074 0,-0.074 0.168,-0.172"
         style="fill:#161616;fill-opacity:1;fill-rule:evenodd;stroke:none"
         id="path950" /><path
         d="m 131.25,196.129 0.156,0.004 c 0.086,-0.004 0.176,0.078 0.254,0.512 0.496,1.359 0.41,3.378 -0.129,4.386 -0.164,0.43 -0.164,0.5 -0.254,0.508 -0.339,-0.008 -0.339,-0.008 -0.23,-0.594 0.066,-0.515 0.262,-1.187 0.262,-1.773 0,-0.168 -0.071,-2.024 -0.157,-2.535 -0.078,-0.426 -0.078,-0.5 0.098,-0.508"
         style="fill:#161616;fill-opacity:1;fill-rule:evenodd;stroke:none"
         id="path952" /><path
         d="m 128.301,205.137 h -0.156 c -0.098,0.004 -0.098,0.004 0.085,-0.508 0.168,-0.844 0.52,-1.676 0.532,-2.602 -0.012,-0.175 -0.649,-3.726 -0.492,-4.062 0.168,-0.254 0.441,-0.246 0.683,0.086 0.078,0.094 0.078,0.094 0.168,0.601 0.567,2.868 0.899,3.633 -0.476,6.067 -0.247,0.426 -0.247,0.426 -0.344,0.418"
         style="fill:#161616;fill-opacity:1;fill-rule:evenodd;stroke:none"
         id="path954" /><path
         d="m 84.6172,199.398 c 1.2617,2.629 3.0117,4.317 6.4687,5.036 0.5079,0.07 0.5079,0.07 0.5938,0.25 0.0781,0.765 -1.0234,0.496 -2.207,-0.106 -2.8399,-1.379 -4.5313,-2.398 -5.4297,-5.285 -0.086,-0.426 -0.086,-0.426 0.2539,-0.414 0.0781,0.004 0.1679,0.086 0.3203,0.519"
         style="fill:#161616;fill-opacity:1;fill-rule:evenodd;stroke:none"
         id="path956" /><path
         d="m 43.4805,205.063 c -0.0782,-0.524 0,-0.586 0.5039,-0.418 0.8398,0.418 1.7695,0.777 2.4453,0.519 0.6797,-0.254 1.3594,-1.094 2.1211,-1.254 0.3398,-0.078 0.6875,-0.07 1.0234,-0.156 0.4219,-0.164 0.9297,-0.668 1.3516,-0.746 0.7539,-0.242 2.7773,0.859 3.4453,1.383 0.2539,0.172 0.5898,0.496 0.418,0.75 -0.3438,0.339 -1.1875,-0.422 -1.6055,-0.676 -0.25,-0.09 -0.5,-0.172 -0.8398,-0.18 -0.3282,-0.09 -0.336,-0.012 -0.0821,0.332 0.3321,0.426 1.8242,2.379 1.2461,2.895 -0.4258,0.332 -0.9258,-0.699 -1.25,-1.035 -0.6758,-0.676 -2.3711,-1.106 -3.293,-0.95 -1.6835,0.149 -1.9531,0.825 -3.5585,0.473 -0.4961,-0.082 -1.0079,-0.262 -1.4219,-0.434 -0.4258,-0.168 -0.5039,-0.253 -0.5039,-0.503"
         style="fill:#161616;fill-opacity:1;fill-rule:evenodd;stroke:none"
         id="path958" /><path
         d="m 125.703,204.781 c 0,-0.511 0.078,-1.347 0.012,-2.109 -0.168,-0.68 -0.41,-1.363 -0.324,-1.524 0.156,-0.078 0.41,0.008 0.5,0.165 0.586,0.777 0.308,2.964 0.222,3.804 -0.175,1.43 -0.359,2.371 -1.218,3.883 -0.161,0.34 -0.43,0.758 -0.676,0.492 -0.332,-0.328 0.594,-1.262 0.769,-1.679 0.344,-0.583 0.625,-2.278 0.715,-3.032"
         style="fill:#161616;fill-opacity:1;fill-rule:evenodd;stroke:none"
         id="path960" /><path
         d="m 82.0039,211.016 c -0.082,-0.172 -0.0898,-0.586 0,-0.75 0.0859,-0.094 0.1836,-0.086 0.3399,0.004 0.5078,0.328 0.9296,1.101 0.664,1.433 -0.2539,0.16 -0.75,-0.004 -1.0039,-0.687"
         style="fill:#161616;fill-opacity:1;fill-rule:evenodd;stroke:none"
         id="path962" /><path
         d="m 86.9453,216.625 3.1836,2.141 c 0.2539,0.164 0.418,0.257 0.418,0.339 v 0.247 c 0,0.097 -0.0781,0.089 -0.5078,0.003 -1.5118,-0.269 -2.0118,-0.683 -3.4453,-1.878 -0.2461,-0.27 -0.8321,-0.86 -0.4024,-1.106 0.0781,-0.086 0.1563,0.008 0.2422,0 0.0898,-0.008 0.1602,0 0.5117,0.254"
         style="fill:#161616;fill-opacity:1;fill-rule:evenodd;stroke:none"
         id="path964" /><path
         d="m 88.5078,221.355 c 0,-0.07 0,-0.242 0,-0.316 0.1719,-0.258 1.6875,0.688 1.9336,0.934 0.0859,0.175 0.0781,0.254 0.0859,0.336 -0.2617,0.261 -1.3593,-0.422 -2.0195,-0.954"
         style="fill:#161616;fill-opacity:1;fill-rule:evenodd;stroke:none"
         id="path966" /><path
         d="m 121.582,234.047 c -0.43,-0.527 -0.754,-1.453 -1.34,-2.293 -0.406,-0.602 -3.262,-2.82 -2.762,-3.328 0.333,-0.406 1.016,0.535 1.426,1.113 0.508,0.68 1.438,1.371 2.012,2.215 0.098,0.082 1.328,2.207 1.172,2.293 -0.176,0.078 -0.43,0.156 -0.508,0"
         style="fill:#161616;fill-opacity:1;fill-rule:evenodd;stroke:none"
         id="path968" /><path
         d="m 94.9805,235.766 c -0.2539,-0.168 -0.3516,-0.34 -0.3321,-0.422 v -0.09 c -0.0078,-0.082 0,-0.156 0.1563,-0.156 l 0.1758,-0.008 c 0.0898,-0.008 0.2539,0.168 0.5078,0.34 l 3.1836,2.91 c 0.2344,0.16 0.4101,0.332 0.4101,0.332 l 0.0118,0.172 c -0.0118,0.078 -0.0118,0.078 -0.0899,0.082 H 98.75 c -0.0898,0 -0.2539,-0.086 -0.4961,-0.254 l -3.2734,-2.906"
         style="fill:#161616;fill-opacity:1;fill-rule:evenodd;stroke:none"
         id="path970" /><path
         d="m 121.047,237.406 c 0.406,0.512 1.68,1.953 1.25,2.125 -0.09,0.078 -0.18,0.082 -0.258,0.082 -0.086,-0.09 -0.086,-0.09 -0.406,-0.422 -0.52,-0.515 -1.86,-1.957 -1.262,-2.214 0,0 0.09,0.003 0.164,0.011 0.18,-0.008 0.18,0.078 0.512,0.418"
         style="fill:#161616;fill-opacity:1;fill-rule:evenodd;stroke:none"
         id="path972" /><path
         d="m 201.992,141.656 c -0.09,-0.156 -0.09,-0.426 0.012,-0.5 0.164,-0.34 0.992,0.606 1.25,0.934 0.992,1.109 2.012,3.144 2.5,4.582 0.074,0.336 0.152,0.75 -0.012,0.848 -0.605,0.5 -1.008,-1.622 -1.25,-2.301 -0.246,-0.668 -1.074,-2.207 -1.57,-2.617 -0.344,-0.352 -0.754,-0.684 -0.93,-0.946"
         style="fill:#161616;fill-opacity:1;fill-rule:evenodd;stroke:none"
         id="path974" /><path
         d="m 203.547,158.059 c 0.098,-1.184 0.535,-3.223 0.625,-4.653 0.105,-1.511 -0.371,-4.554 -1.137,-5.988 -0.332,-0.77 -1.582,-2.297 -1.316,-2.715 0.254,-0.508 1.25,0.766 1.672,1.352 0.496,0.949 0.82,1.957 1.16,3.14 0.246,1.102 0.722,4.731 0.547,5.157 -0.086,0.41 -0.262,0.664 -0.262,1.093 -0.012,0.34 0.086,0.668 -0.012,1.004 -0.09,0.524 -0.515,1.442 -0.945,1.602 -0.156,0.086 -0.332,0.086 -0.332,0.008"
         style="fill:#161616;fill-opacity:1;fill-rule:evenodd;stroke:none"
         id="path976" /><path
         d="m 224.563,170.613 c 0,0 0,0 -0.012,0.102 v 0.246 c -0.012,0.16 -0.012,0.16 -0.176,0.168 h -0.254 c -0.168,-0.012 -0.168,-0.012 -0.156,-0.172 v -0.348 c -0.012,-0.171 -0.012,-0.171 0.156,-0.156 l 0.176,-0.004 c 0.078,0.004 0.078,0.004 0.078,0.094 0.012,0.082 0.012,0.082 0.09,0.078 l 0.098,-0.008"
         style="fill:#161616;fill-opacity:1;fill-rule:evenodd;stroke:none"
         id="path978" /><path
         d="m 238.75,199.434 0.098,0.004 c 0.078,-0.004 0.078,-0.004 0.066,0.07 v 0.097 c 0,0.168 0,0.168 -0.164,0.59 -0.781,2.438 -1.648,4.961 -3.508,5.703 0,0 -1.941,0.586 -2.117,0.329 -0.09,0.003 0,-0.164 0,-0.247 0.012,-0.167 0.098,-0.179 0.52,-0.433 2.293,-0.902 2.46,-0.817 3.296,-2.246 0.864,-1.348 1.125,-1.77 1.555,-3.363 0.09,-0.508 0.09,-0.508 0.254,-0.504"
         style="fill:#161616;fill-opacity:1;fill-rule:evenodd;stroke:none"
         id="path980" /><path
         d="m 235.227,207.676 c 0.437,-0.414 1.355,-0.824 2.031,-1.254 0.691,-0.317 2.215,-1.832 2.469,-2.25 0.175,-0.34 1.125,-2.527 1.457,-2.18 0.242,0.25 -0.52,1.594 -0.871,2.012 -0.938,1.601 -2.469,3.191 -4.336,4.098 -0.332,0.164 -0.672,0.16 -0.75,0.003 -0.09,-0.175 -0.082,-0.433 0,-0.429"
         style="fill:#161616;fill-opacity:1;fill-rule:evenodd;stroke:none"
         id="path982" /><path
         d="m 243.281,203.773 c 0.242,0 0.254,0.09 0.157,0.508 -0.594,2.528 -2.571,5.461 -5.11,6.114 -0.586,0.085 -0.664,0.089 -0.594,-0.25 0,-0.082 0.086,-0.161 0.43,-0.332 2.883,-1.5 3.477,-2.168 4.844,-5.54 0.183,-0.418 0.195,-0.496 0.273,-0.5"
         style="fill:#161616;fill-opacity:1;fill-rule:evenodd;stroke:none"
         id="path984" /><path
         d="m 225.652,212.406 c 0.09,-0.078 0.422,-0.082 0.5,0.012 0.254,0.082 0.008,0.418 -0.246,0.59 -0.777,0.586 -2.117,0.82 -2.371,0.648 -0.176,-0.078 -0.168,-0.25 -0.012,-0.332 0.356,-0.336 1.543,-0.746 2.129,-0.918"
         style="fill:#161616;fill-opacity:1;fill-rule:evenodd;stroke:none"
         id="path986" /><path
         d="m 225.371,215.453 c 0.098,-0.004 0.176,-0.008 0.254,0 0.09,0.082 0,0.246 -0.078,0.332 -0.086,0.172 -0.692,0.422 -1.016,0.414 -0.176,0 -0.176,0 -0.176,-0.164 l 0.008,-0.254 c -0.008,-0.172 -0.008,-0.172 0.332,-0.168 h 0.246 c 0.34,0.008 0.34,0.008 0.34,0.008 v -0.086 c 0.012,-0.074 0.012,-0.074 0.09,-0.082"
         style="fill:#161616;fill-opacity:1;fill-rule:evenodd;stroke:none"
         id="path988" /><path
         d="m 212.297,130.094 c 0.066,0.004 0.254,0.004 0.34,0 0.422,0.258 -1.797,2.941 -2.403,3.605 -0.41,0.598 -0.761,0.942 -1.179,0.598 -0.434,-0.352 1.543,-2.359 3.242,-4.203"
         style="fill:#161616;fill-opacity:1;fill-rule:evenodd;stroke:none"
         id="path990" /><path
         d="m 120.754,155.957 -0.078,-0.004 c -0.078,0 -0.078,0 -0.09,-0.086 l 0.012,-0.258 c 0,-0.164 0,-0.242 0.172,-0.664 1.203,-2.601 1.808,-3.961 4.433,-4.703 0.258,-0.07 0.317,0.012 0.156,0.434 -0.183,0.762 -0.757,0.574 -1.785,1.242 -0.761,0.516 -1.875,2.77 -2.383,3.617 -0.253,0.422 -0.253,0.422 -0.437,0.422"
         style="fill:#161616;fill-opacity:1;fill-rule:evenodd;stroke:none"
         id="path992" /><path
         d="m 120.535,151.734 c -1.015,1.004 -2.637,2.586 -2.801,3.094 -0.175,0.16 -0.168,0.332 -0.254,0.504 -0.261,0.52 -0.683,0.934 -0.937,1.438 -0.266,0.578 -0.438,1.335 -0.438,2.007 -0.019,0.61 0.067,1.278 -0.187,1.356 -0.09,0.183 -0.43,0.082 -0.422,-0.078 -0.074,-0.094 -0.074,-0.266 -0.074,-0.344 0.074,-0.086 0.066,-0.172 0.176,-0.594 0.691,-3.105 1.382,-5.054 3.601,-7.316 0.254,-0.238 1.438,-1.254 1.692,-0.918 0,0.086 0,0.269 -0.012,0.344 0.012,0.168 0.012,0.168 -0.344,0.507"
         style="fill:#161616;fill-opacity:1;fill-rule:evenodd;stroke:none"
         id="path994" /><path
         d="m 112.207,159.355 -0.098,1.684 c 0,0.422 -0.007,0.504 -0.175,0.504 -1.172,0.152 -0.301,-3.125 0.207,-4.395 0.769,-2.175 1.875,-3.527 4.019,-6.125 0.254,-0.335 0.344,-0.421 0.434,-0.425 0.078,0.004 0.164,0.011 0.254,0.011 0.488,0.258 -0.688,1.094 -0.957,1.34 -1.02,0.91 -2.563,3.946 -3.246,5.453 -0.086,0.352 -0.262,0.68 -0.25,0.934 -0.176,0.516 -0.188,0.59 -0.188,1.019"
         style="fill:#161616;fill-opacity:1;fill-rule:evenodd;stroke:none"
         id="path996" /><path
         d="m 109.402,162.195 c -0.007,0.164 -0.339,0.078 -0.507,-0.004 -0.418,-0.343 -0.047,-4.132 -0.047,-4.558 0.261,-1.172 1.289,-2.774 2.492,-4.203 0.418,-0.5 0.762,-0.84 0.933,-0.582 0.403,0.433 -1.035,1.765 -1.89,3.031 -0.774,1.176 -1.028,2.187 -1.035,3.523 0.066,0.934 0.132,2.118 0.054,2.793"
         style="fill:#161616;fill-opacity:1;fill-rule:evenodd;stroke:none"
         id="path998" /><path
         d="m 105.613,161.234 c 0.188,-2.179 0.45,-3.535 1.555,-4.968 0.43,-0.586 1.023,-1.176 1.445,-0.914 0.586,0.347 -0.261,0.925 -0.847,1.511 -0.864,0.926 -1.543,3.039 -1.477,4.121 0.078,0.34 0.731,2.633 0.313,3.047 -0.34,0.246 -0.664,-0.261 -0.75,-0.847 -0.082,-0.254 -0.161,-0.594 -0.082,-0.926 0,-0.434 0.011,-0.512 -0.086,-0.512 -0.079,-0.008 -0.079,-0.008 -0.071,-0.512"
         style="fill:#161616;fill-opacity:1;fill-rule:evenodd;stroke:none"
         id="path1000" /><path
         d="m 113.328,176.402 c -0.816,-0.836 -2.754,-2.629 -3.594,-3.144 -0.504,-0.254 -1.257,-0.68 -0.82,-1.024 0.156,-0.156 0.754,0.176 1.25,0.508 1.34,0.774 5.449,4.278 5.606,5.953 0,0.188 -0.086,0.348 -0.172,0.438 -0.422,0.332 -0.586,-0.516 -1.086,-1.375 -0.332,-0.5 -0.84,-1.004 -1.184,-1.356"
         style="fill:#161616;fill-opacity:1;fill-rule:evenodd;stroke:none"
         id="path1002" /><path
         d="m 110.227,176.129 c 2.761,1.879 3.347,2.309 5.093,4.945 0.422,0.582 0.93,1.348 0.676,1.606 -0.332,0.41 -1.008,-1.032 -1.504,-1.875 -0.422,-0.766 -1.015,-1.528 -1.594,-2.035 -1.011,-0.778 -2.605,-1.629 -3.027,-2.305 -0.066,-0.082 -0.164,-0.25 0.012,-0.332 0.09,-0.004 0.254,0 0.344,-0.004"
         style="fill:#161616;fill-opacity:1;fill-rule:evenodd;stroke:none"
         id="path1004" /><path
         d="m 110.281,179.594 c -0.086,-0.258 0,-0.348 0.508,-0.176 1.684,0.527 4.438,4.609 5.012,5.953 0.332,0.688 0.586,1.445 0.84,2.117 0.144,0.508 0.058,0.602 -0.196,0.586 -0.168,-0.086 -0.168,-0.086 -0.324,-0.496 -1.656,-3.73 -2.488,-4.922 -5.516,-7.476 -0.332,-0.344 -0.332,-0.344 -0.324,-0.508"
         style="fill:#161616;fill-opacity:1;fill-rule:evenodd;stroke:none"
         id="path1006" /><path
         d="m 196.555,144.492 c -0.071,-0.082 -0.063,-0.429 -0.071,-0.597 -0.007,-0.086 0.164,-0.071 0.34,0 0.93,0.601 1.848,2.046 1.582,2.293 -0.34,0.421 -1.258,-0.774 -1.851,-1.696"
         style="fill:#161616;fill-opacity:1;fill-rule:evenodd;stroke:none"
         id="path1008" /><path
         d="m 195.293,146.672 c 0.574,0.601 1.16,1.281 1.594,1.867 0.242,0.43 0.398,0.84 0.652,1.191 0.996,1.598 1.348,1.454 2.07,3.727 0.176,0.508 0.086,0.508 -0.254,0.508 -0.156,-0.012 -0.253,-0.086 -0.417,-0.508 -0.825,-1.523 -1.907,-3.812 -2.493,-4.492 -0.078,-0.172 -2.422,-2.383 -1.925,-2.641 0.097,-0.086 0.175,-0.074 0.265,0.004 0.156,0 0.242,0 0.508,0.344"
         style="fill:#161616;fill-opacity:1;fill-rule:evenodd;stroke:none"
         id="path1010" /><path
         d="m 194.98,152.32 c -0.085,-0.086 -0.167,-0.425 -0.078,-0.5 0.176,-0.414 1.414,0.938 1.602,1.106 0.742,1.019 2.91,4.418 3.23,5.941 0.102,0.332 0.09,0.59 -0.007,0.668 -0.071,0.176 -0.247,0.16 -0.332,0.004 -0.254,-0.168 -0.411,-0.848 -0.665,-1.519 -0.234,-0.774 -2,-3.825 -2.5,-4.336 -0.41,-0.508 -1.003,-0.942 -1.25,-1.364"
         style="fill:#161616;fill-opacity:1;fill-rule:evenodd;stroke:none"
         id="path1012" /><path
         d="m 199.355,164.352 -0.167,-0.012 c -0.243,0 -0.243,0 -0.333,-0.512 -0.242,-1.605 -1.394,-4.988 -2.312,-6.164 -0.41,-0.437 -1.008,-1.031 -0.754,-1.355 0.266,-0.176 0.512,0.07 0.766,0.421 0.925,1.106 3.008,5 2.984,7.11 -0.008,0.5 -0.008,0.5 -0.184,0.512"
         style="fill:#161616;fill-opacity:1;fill-rule:evenodd;stroke:none"
         id="path1014" /><path
         d="m 203.242,164.711 c -0.012,-0.418 0.012,-1.18 -0.144,-1.856 -0.176,-0.847 -1.34,-2.375 -0.989,-2.96 0.254,-0.422 0.579,-0.168 0.743,0.089 2.351,2.981 1.726,6.43 0.593,9.532 -0.593,1.605 -1.375,3.636 -2.05,4.722 -0.418,0.672 -2.301,2.602 -2.633,2.77 -0.254,0.078 -0.442,0.078 -0.598,-0.016 -0.168,-0.25 0.188,-0.832 0.762,-1.344 0.429,-0.332 0.859,-0.574 1.203,-0.914 1.101,-1.004 3.008,-7.406 3.113,-10.023"
         style="fill:#161616;fill-opacity:1;fill-rule:evenodd;stroke:none"
         id="path1016" /><path
         d="m 186.008,135.535 c -0.09,-0.074 -0.09,-0.242 -0.012,-0.332 0.098,-0.164 0.352,-0.254 0.598,-0.254 1.785,-0.492 2.625,-0.988 4.058,-0.539 0.508,0.063 1.106,0.34 1.352,0.668 0.152,0.254 0.242,0.586 0.074,0.684 -0.43,0.156 -1.695,-0.43 -2.703,-0.61 -0.242,-0.007 -0.496,-0.007 -0.754,-0.015 -0.176,0.008 -2.117,0.918 -2.613,0.398"
         style="fill:#161616;fill-opacity:1;fill-rule:evenodd;stroke:none"
         id="path1018" /><path
         d="m 187.168,137.406 -3.633,-0.023 c -0.422,-0.016 -0.597,-0.004 -1.008,0.066 -0.757,0.168 -1.433,0.328 -2.195,0.496 -1.023,0.325 -3.906,1.649 -4.246,1.993 -0.078,0.085 -1.184,1.683 -1.523,1.175 0,-0.09 0,-0.269 0.007,-0.351 -0.007,-0.16 -0.007,-0.16 0.34,-0.504 0.586,-0.492 1.098,-1.004 1.77,-1.496 0.593,-0.418 3.906,-1.742 4.836,-1.907 1.101,-0.246 3.972,-0.566 5.23,-0.289 0.774,0.075 1.02,0.344 0.93,0.668 0.012,0.172 -0.078,0.176 -0.508,0.172"
         style="fill:#161616;fill-opacity:1;fill-rule:evenodd;stroke:none"
         id="path1020" /><path
         d="m 46.3672,128.445 c -0.0781,-0.093 0.0117,-0.257 0.0039,-0.34 0.0859,-0.097 0.1562,-0.085 0.332,-0.007 2.5235,1.297 3.9414,4.168 3.8164,7.632 0.0078,0.418 -0.0898,0.84 0,1.266 0.086,0.508 1.1563,3.223 0.9805,3.551 -0.2539,0.266 -0.6641,-0.258 -0.918,-0.774 -0.332,-0.503 -0.582,-1.175 -0.7461,-1.765 -0.4921,-1.953 -0.3828,-5.063 -0.7968,-5.914 -0.5,-1.188 -2.0078,-2.719 -2.6719,-3.649"
         style="fill:#161616;fill-opacity:1;fill-rule:evenodd;stroke:none"
         id="path1022" /><path
         d="m 45.375,179.664 c -0.0078,0.5 0.3398,0.512 0.7422,1.191 0.1719,0.168 0.168,0.333 0.0859,0.418 -0.2695,0.598 -1.6133,-0.519 -1.8476,-1.023 -0.1719,-0.262 -0.25,-0.516 -0.2539,-0.848 0.0156,-1.675 0.6172,-2.785 -0.2305,-3.8 -0.4023,-0.512 -1.1719,-1.188 -0.6445,-1.692 0.5937,-0.586 2.2422,1.957 2.5937,2.723 0.4102,0.765 0.4922,1.187 1.1602,1.441 0.5039,0.262 1.1797,0.262 1.6875,0.512 0.5898,0.269 1.9179,2.297 1.8281,3.316 -0.0859,0.25 -0.0859,0.25 -0.2422,0.246 -0.5976,0 -0.5976,-0.085 -0.8437,-0.761 -0.5782,-1.524 -1.7696,-1.364 -3.5313,-1.715 -0.4297,-0.086 -0.5078,-0.094 -0.5039,-0.008"
         style="fill:#161616;fill-opacity:1;fill-rule:evenodd;stroke:none"
         id="path1024" /><path
         d="m 23.7305,182.363 c 0.0039,-0.343 -0.5742,-0.687 -1.25,-0.847 -0.3282,-0.176 -0.668,-0.102 -1.0117,-0.102 -0.4297,-0.004 -0.5157,0 -0.586,-0.168 -0.2578,-0.433 -0.164,-0.762 0.4219,-0.848 0.5078,-0.085 1.3476,0.188 1.8555,0.524 0.5898,0.254 1.9218,1.711 2.0937,2.129 0.0742,0.254 0.082,0.426 -0.0156,0.422 -0.082,0.004 -0.082,0.004 -0.1602,-0.004 0.0039,0.086 0.0039,0.086 0.0039,0.086 -0.2578,0.332 -0.7539,-0.34 -1.0898,-0.688 -0.2539,-0.332 -0.2578,-0.422 -0.2617,-0.504"
         style="fill:#161616;fill-opacity:1;fill-rule:evenodd;stroke:none"
         id="path1026" /><path
         d="m 66.0977,247.012 c 0.6015,0.015 1.3554,-0.074 1.8711,0.105 0.0742,0.008 0.25,0.086 0.3281,0.09 0.2461,0.086 0.5156,0.082 0.7656,0.164 0.332,0.184 0.7383,0.945 1.0742,1.453 0.418,0.504 0.7578,0.848 1.4258,1.192 0.5117,0.339 1.1758,0.597 1.2656,0.433 -0.0039,-0.082 -0.0117,-0.172 0.0078,-0.258 -0.0039,-0.086 -0.0039,-0.171 -0.3359,-0.503 -1.7617,-2.383 -2.7656,-3.825 -5.2891,-4.016 -0.6718,0 -0.9296,0.242 -1.3554,0.914 -0.2539,0.348 -0.2657,0.422 0.2422,0.426"
         style="fill:#ffffff;fill-opacity:1;fill-rule:evenodd;stroke:none"
         id="path1028" /><path
         d="m 70.5352,166.367 c 0.9375,-0.847 2.0429,-1.683 2.7265,-2.429 0.7696,-0.676 1.0156,-0.918 2.5391,-1.497 0.6875,-0.257 1.4453,-0.507 2.0312,-0.753 0.6836,-0.321 1.2696,-0.747 1.9571,-1.004 1.1797,-0.313 3.2968,-0.137 4.7343,-0.375 1.6094,-0.325 1.6875,-1 3.3946,-2.25 0.3359,-0.254 0.5781,-0.418 1.0078,-0.575 0.6055,-0.257 2.4531,-0.582 2.7851,-0.496 0.5157,0.176 1.3555,1.024 1.8438,1.797 0.6719,1.098 0.6641,1.602 1.3398,2.192 0.6602,0.609 3.1016,1.55 3.5235,2.492 0.1758,0.418 0,0.402 -0.4219,0.414 -0.1523,-0.09 -0.2617,-0.098 -0.6797,-0.27 -1.0859,-0.683 -2.5117,-1.367 -3.2812,-1.965 -1.9258,-1.703 -2.336,-3.304 -4.1836,-3.062 -0.5039,-0.008 -0.9375,0.148 -1.3555,0.406 -0.5938,0.328 -1.0352,1.004 -1.6094,1.516 -1.3672,1.25 -2.2109,0.894 -3.9844,0.801 -2.1992,-0.098 -6.9296,1.714 -8.7226,3.05 -1.1914,0.84 -2.457,2.184 -3.4727,2.672 -0.5937,0.254 -0.6875,0.172 -0.5859,-0.25 -0.0039,-0.082 -0.0078,-0.172 0.4141,-0.414"
         style="fill:#161616;fill-opacity:1;fill-rule:evenodd;stroke:none"
         id="path1030" /><path
         d="m 163.699,137.477 c -0.496,0.078 -2.371,0.996 -2.449,1.332 -0.352,0.761 1.152,1.781 1.758,1.953 0.664,0.168 1.34,0.097 2.019,0.269 1.008,0.34 1.172,0.512 2.024,0.438 1.191,-0.16 2.453,-0.996 2.715,-2.43 0.097,-0.328 -0.078,-0.934 -0.325,-1.168 -0.496,-0.605 -5.066,-0.476 -5.742,-0.394"
         style="fill:#ffffff;fill-opacity:1;fill-rule:evenodd;stroke:none"
         id="path1032" /></g></g></svg>
